<svg xmlns="http://www.w3.org/2000/svg" xmlns:xlink="http://www.w3.org/1999/xlink" version="1.1" x="0px" y="0px" viewBox="0 0 100 125" style="enable-background:new 0 0 100 100;" xml:space="preserve"><path d="M89,88H78.7792969v-3.4303589c0.6068115,0.1602783,1.2283936,0.2487183,1.8623047,0.2487183  c4.0556641,0,7.3554688-3.2861328,7.3554688-7.3261719c0-0.2607422-0.015625-0.5244141-0.046875-0.7958984  c1.3115234-1.5537109,2.0283203-3.4980469,2.0283203-5.5302734c0-3.3808594-1.9746094-6.4052734-5.0029297-7.8027344  c0.1298828-0.546875,0.1953125-1.1035156,0.1953125-1.6630859c0-4.0400391-3.2998047-7.3261719-7.3554688-7.3261719  c-3.7304688,0-6.8203125,2.7568359-7.2871094,6.3808594c-2.3974609,1.2617188-3.9160156,3.7421875-3.9160156,6.4775391  c0,1.3125,0.3486328,2.5810547,1.0146484,3.7041016c-0.6660156,1.3066406-1.0146484,2.7480469-1.0146484,4.2060547  c0,5.1435547,4.2021484,9.328125,9.3662109,9.328125c0.2632446,0,0.5314331-0.0183105,0.8007812-0.0426636V88H50.3671875v-4.4888306  c0.7885742,0.2338867,1.6008301,0.3550415,2.4287109,0.3550415c4.75,0,8.6152344-3.8486328,8.6152344-8.5791016  c0-0.3320312-0.0214844-0.6679688-0.0654297-1.0166016c1.5771484-1.8349609,2.4394531-4.1464844,2.4394531-6.5634766  c0-4.0283203-2.3847656-7.6259766-6.0283203-9.2373047c0.1787109-0.6914062,0.2685547-1.3964844,0.2685547-2.1044922  c0-4.7314453-3.8652344-8.5800781-8.6152344-8.5800781c-4.4042969,0-8.046875,3.28125-8.546875,7.5761719  c-2.8613281,1.4628906-4.6777344,4.3945312-4.6777344,7.6318359c0,1.5742188,0.4277344,3.0927734,1.2431641,4.4316406  c-0.8144531,1.5615234-1.2431641,3.2939453-1.2431641,5.046875c0,6.0527344,4.9453125,10.9775391,11.0234375,10.9775391  c0.3811035,0,0.7680664-0.0232544,1.1582031-0.0665283V88H22.1962891v-3.4303589  c0.6072388,0.1602783,1.2290649,0.2487183,1.8623047,0.2487183c4.0556641,0,7.3544922-3.2861328,7.3544922-7.3261719  c0-0.2617188-0.015625-0.5253906-0.046875-0.7958984c1.3115234-1.5527344,2.0283203-3.4980469,2.0283203-5.5302734  c0-3.3808594-1.9746094-6.4052734-5.0019531-7.8027344c0.1298828-0.546875,0.1953125-1.1035156,0.1953125-1.6630859  c0-4.0400391-3.2998047-7.3261719-7.3554688-7.3261719c-3.7304688,0-6.8203125,2.7568359-7.2871094,6.3808594  c-2.3974609,1.2617188-3.9160156,3.7421875-3.9160156,6.4775391c0,1.3125,0.3486328,2.5810547,1.0146484,3.7041016  c-0.6660156,1.3066406-1.0146484,2.7480469-1.0146484,4.2060547c0,5.1435547,4.2021484,9.328125,9.3662109,9.328125  c0.2635498,0,0.5316772-0.0183105,0.8007812-0.0426636V88H11c-0.5527344,0-1,0.4472656-1,1s0.4472656,1,1,1h78  c0.5527344,0,1-0.4472656,1-1S89.5527344,88,89,88z M75.9785156,82.4707031c-4.0615234,0-7.3662109-3.2871094-7.3662109-7.328125  c0-1.3076172,0.359375-2.5986328,1.0380859-3.7353516c0.2041016-0.3408203,0.1865234-0.7714844-0.0449219-1.0947266  c-0.6494141-0.9072266-0.9931641-1.9726562-0.9931641-3.0800781c0-2.1367188,1.2773438-4.0605469,3.2529297-4.9003906  c0.3544922-0.1503906,0.5908203-0.4902344,0.6083984-0.875c0.1289062-2.8505859,2.4755859-5.0830078,5.3417969-5.0830078  c2.953125,0,5.3554688,2.3896484,5.3554688,5.3261719c0,0.6416016-0.1191406,1.2783203-0.3554688,1.8935547  c-0.0976562,0.2558594-0.0869141,0.5390625,0.0302734,0.7861328c0.1162109,0.2470703,0.3291016,0.4355469,0.5888672,0.5214844  c2.7177734,0.9013672,4.5439453,3.4189453,4.5439453,6.2646484c0,1.6835938-0.6435547,3.2900391-1.8125,4.5253906  c-0.2177734,0.2304688-0.3134766,0.5507812-0.2578125,0.8632812c0.0595703,0.3349609,0.0888672,0.6425781,0.0888672,0.9375  c0,2.9365234-2.4023438,5.3261719-5.3554688,5.3261719c-0.6389771,0-1.2627563-0.119812-1.8623047-0.34375v-5.4332886  c3.6850586-0.4898682,6.5400391-3.633667,6.5400391-7.4358521c0-0.5527344-0.4472656-1-1-1s-1,0.4472656-1,1  c0,2.6980591-1.9616699,4.9450684-4.5400391,5.4151611V64.2070312c0-0.5527344-0.4472656-1-1-1s-1,0.4472656-1,1v4.5942993  c-1.2405396-0.4176636-2.1416016-1.5726318-2.1416016-2.9448853c0-0.5527344-0.4472656-1-1-1s-1,0.4472656-1,1  c0,2.4830933,1.7840576,4.5559692,4.1416016,5.0213623v7.8355103c-2.3399048-0.3920288-4.1328125-2.4071045-4.1328125-4.8441772  c0-0.5527344-0.4472656-1-1-1s-1,0.4472656-1,1c0,3.5421143,2.6842651,6.4673462,6.1328125,6.8739624v1.6774902  C76.5099487,82.4517212,76.2437134,82.4707031,75.9785156,82.4707031z M47.2089844,81.4492188  c-4.9755859,0-9.0234375-4.0273438-9.0234375-8.9775391c0-1.6025391,0.4394531-3.1855469,1.2714844-4.5771484  c0.2041016-0.3408203,0.1865234-0.7714844-0.0449219-1.0947266c-0.8027344-1.1210938-1.2265625-2.4375-1.2265625-3.8066406  c0-2.6386719,1.5771484-5.0146484,4.0185547-6.0527344c0.3535156-0.1503906,0.5898438-0.4902344,0.6074219-0.875  c0.1601562-3.5214844,3.0585938-6.2802734,6.5986328-6.2802734c3.6474609,0,6.6152344,2.9521484,6.6152344,6.5800781  c0,0.7900391-0.1484375,1.578125-0.4394531,2.3408203c-0.0976562,0.2548828-0.0869141,0.5390625,0.0302734,0.7861328  c0.1162109,0.2460938,0.3291016,0.4345703,0.5888672,0.5205078c3.3378906,1.1064453,5.5800781,4.1982422,5.5800781,7.6943359  c0,2.0683594-0.7900391,4.0419922-2.2255859,5.5576172c-0.2177734,0.2304688-0.3134766,0.5507812-0.2578125,0.8623047  c0.0732422,0.4150391,0.109375,0.7939453,0.109375,1.1601562c0,3.6279297-2.9677734,6.5791016-6.6152344,6.5791016  c-0.8346558,0-1.6486816-0.1660767-2.4287109-0.4761353v-6.8137817c4.4022827-0.4967651,7.8349609-4.223999,7.8349609-8.7393799  c0-0.5527344-0.4472656-1-1-1s-1,0.4472656-1,1c0,3.4102783-2.539856,6.2345581-5.8349609,6.7186279V59.3691406  c0-0.5527344-0.4472656-1-1-1s-1,0.4472656-1,1v5.7721558c-1.6989746-0.4438477-2.9619141-1.9701538-2.9619141-3.7965698  c0-0.5527344-0.4472656-1-1-1s-1,0.4472656-1,1c0,2.9351807,2.1501465,5.3729248,4.9619141,5.8490601v9.7973022  c-3.0115967-0.385437-5.3486328-2.9467163-5.3486328-6.0457764c0-0.5527344-0.4472656-1-1-1s-1,0.4472656-1,1  c0,4.2028809,3.2305908,7.6669922,7.3486328,8.0619507v2.3568115  C47.9754028,81.4170532,47.5877075,81.4492188,47.2089844,81.4492188z M19.3955078,82.4707031  c-4.0615234,0-7.3662109-3.2871094-7.3662109-7.328125c0-1.3076172,0.359375-2.5986328,1.0380859-3.7353516  c0.2041016-0.3408203,0.1865234-0.7714844-0.0449219-1.0947266c-0.6494141-0.9072266-0.9931641-1.9726562-0.9931641-3.0800781  c0-2.1367188,1.2773438-4.0605469,3.2529297-4.9003906c0.3544922-0.1503906,0.5908203-0.4902344,0.6083984-0.875  c0.1289062-2.8505859,2.4755859-5.0830078,5.3417969-5.0830078c2.953125,0,5.3554688,2.3896484,5.3554688,5.3261719  c0,0.6416016-0.1191406,1.2783203-0.3554688,1.8935547c-0.0976562,0.2558594-0.0869141,0.5390625,0.0292969,0.7861328  c0.1171875,0.2470703,0.3300781,0.4355469,0.5898438,0.5214844c2.7167969,0.9013672,4.5429688,3.4189453,4.5429688,6.2646484  c0,1.6835938-0.6435547,3.2910156-1.8115234,4.5253906c-0.2177734,0.2304688-0.3134766,0.5507812-0.2578125,0.8632812  c0.0595703,0.3320312,0.0878906,0.6386719,0.0878906,0.9375c0,2.9365234-2.4023438,5.3261719-5.3544922,5.3261719  c-0.6386108,0-1.2619629-0.1196289-1.8623047-0.3433228v-5.4337158c3.6849365-0.4898682,6.5390625-3.633667,6.5390625-7.4358521  c0-0.5527344-0.4472656-1-1-1s-1,0.4472656-1,1c0,2.6980591-1.9608765,4.9450684-4.5390625,5.4151611V64.2070312  c0-0.5527344-0.4472656-1-1-1s-1,0.4472656-1,1v4.5942993c-1.2405396-0.4176636-2.1416016-1.5726318-2.1416016-2.9448853  c0-0.5527344-0.4472656-1-1-1s-1,0.4472656-1,1c0,2.4830933,1.7840576,4.5559692,4.1416016,5.0213623v7.8355103  c-2.3399048-0.3920288-4.1328125-2.4071045-4.1328125-4.8441772c0-0.5527344-0.4472656-1-1-1s-1,0.4472656-1,1  c0,3.5421143,2.6842651,6.4673462,6.1328125,6.8739624v1.6768799C19.9254761,82.451355,19.6573486,82.4707031,19.3955078,82.4707031  z"/><path d="M43.1552734,23.1875c0,3.7802734,3.0703125,6.8564453,6.8447266,6.8564453s6.8447266-3.0761719,6.8447266-6.8564453  S53.7744141,16.3310547,50,16.3310547S43.1552734,19.4072266,43.1552734,23.1875z M50,18.3310547  c2.671875,0,4.8447266,2.1787109,4.8447266,4.8564453S52.671875,28.0439453,50,28.0439453s-4.8447266-2.1787109-4.8447266-4.8564453  S47.328125,18.3310547,50,18.3310547z"/><path d="M51,13.3505859V11c0-0.5527344-0.4472656-1-1-1s-1,0.4472656-1,1v2.3505859c0,0.5527344,0.4472656,1,1,1  S51,13.9033203,51,13.3505859z"/><path d="M42.1083984,13.8632812c-0.390625-0.3925781-1.0234375-0.390625-1.4140625-0.0019531  c-0.3916016,0.3896484-0.3916016,1.0234375-0.0019531,1.4140625L42.3505859,16.9375  c0.1953125,0.1962891,0.4521484,0.2939453,0.7080078,0.2939453s0.5107422-0.0976562,0.7060547-0.2919922  c0.3916016-0.3896484,0.3916016-1.0234375,0.0019531-1.4140625L42.1083984,13.8632812z"/><path d="M37.8378906,22.1875c-0.5527344,0-1,0.4472656-1,1s0.4472656,1,1,1h2.3457031c0.5527344,0,1-0.4472656,1-1s-0.4472656-1-1-1  H37.8378906z"/><path d="M42.3505859,29.4365234l-1.6582031,1.6630859c-0.3896484,0.390625-0.3896484,1.0244141,0.0019531,1.4140625  c0.1953125,0.1943359,0.4501953,0.2919922,0.7060547,0.2919922c0.2568359,0,0.5126953-0.0976562,0.7080078-0.2939453  l1.6582031-1.6630859c0.3896484-0.390625,0.3896484-1.0244141-0.0019531-1.4140625  C43.3740234,29.0458984,42.7412109,29.0449219,42.3505859,29.4365234z"/><path d="M49,33.0244141V35.375c0,0.5527344,0.4472656,1,1,1s1-0.4472656,1-1v-2.3505859c0-0.5527344-0.4472656-1-1-1  S49,32.4716797,49,33.0244141z"/><path d="M56.2353516,29.4355469c-0.3916016,0.3896484-0.3916016,1.0234375-0.0019531,1.4140625l1.6582031,1.6621094  c0.1953125,0.1962891,0.4521484,0.2939453,0.7080078,0.2939453s0.5107422-0.0976562,0.7060547-0.2919922  c0.3916016-0.3896484,0.3916016-1.0234375,0.0019531-1.4140625L57.6494141,29.4375  C57.2587891,29.0449219,56.6259766,29.046875,56.2353516,29.4355469z"/><path d="M62.1621094,24.1875c0.5527344,0,1-0.4472656,1-1s-0.4472656-1-1-1h-2.3457031c-0.5527344,0-1,0.4472656-1,1  s0.4472656,1,1,1H62.1621094z"/><path d="M57.8916016,13.8632812l-1.6582031,1.6630859c-0.3896484,0.390625-0.3896484,1.0244141,0.0019531,1.4140625  c0.1953125,0.1943359,0.4501953,0.2919922,0.7060547,0.2919922c0.2568359,0,0.5126953-0.0976562,0.7080078-0.2939453  l1.6582031-1.6630859c0.3896484-0.390625,0.3896484-1.0244141-0.0019531-1.4140625  C58.9150391,13.4716797,58.2822266,13.4716797,57.8916016,13.8632812z"/><text x="0" y="115" fill="#000000" font-size="5px" font-weight="bold" font-family="'Helvetica Neue', Helvetica, Arial-Unicode, Arial, Sans-serif">Created by Made x Made</text><text x="0" y="120" fill="#000000" font-size="5px" font-weight="bold" font-family="'Helvetica Neue', Helvetica, Arial-Unicode, Arial, Sans-serif">from the Noun Project</text></svg>