<svg xmlns="http://www.w3.org/2000/svg" xmlns:xlink="http://www.w3.org/1999/xlink" version="1.1" x="0px" y="0px" viewBox="0 0 100 125" style="enable-background:new 0 0 100 100;" xml:space="preserve"><path d="M73.8613281,49.5302734c0.1801758,0.3027344,0.5068359,0.4892578,0.8598633,0.4892578  c0.3525391,0,0.6791992-0.1855469,0.8598633-0.4892578L78.5625,44.5136719l2.9833984,5.0166016  c0.3603516,0.6074219,1.3583984,0.6074219,1.71875,0l2.968689-4.9921875l1.8848267,3.5224609  c0.1801758,0.3369141,0.5258789,0.5283203,0.8828125,0.5283203c0.1591797,0,0.3208008-0.0380859,0.4707031-0.1181641  c0.4873047-0.2607422,0.6704102-0.8662109,0.4101562-1.3535156L75.3911133,20.0361328  c-0.1748047-0.3261719-0.4897461-0.5683594-0.8857422-0.5283203c-0.3701172,0.0019531-0.7094727,0.2070312-0.8813477,0.5351562  L63.1850586,39.9259033L55.2524414,25.484375c-0.1748047-0.3183594-0.5087891-0.5166016-0.8725586-0.5185547  c-0.0014648,0-0.0024414,0-0.0039062,0c-0.3618164,0-0.6958008,0.1953125-0.8725586,0.5117188l-5.4129028,9.6699219  L35.1679688,10.5351562C34.9960938,10.2070312,34.6567383,10.0009766,34.2866211,10c-0.0014648,0-0.0024414,0-0.0039062,0  c-0.3686523,0-0.7075195,0.203125-0.8818359,0.5283203L10.1181641,54.0419922  c-0.2602539,0.4873047-0.0766602,1.0927734,0.4101562,1.3535156c0.1499023,0.0800781,0.3115234,0.1181641,0.4707031,0.1181641  c0.3569336,0,0.7026367-0.1914062,0.8828125-0.5283203L22.559021,35.0307617l2.9683228,4.9907227  c0.3603516,0.6074219,1.3583984,0.6074219,1.71875,0l2.9833984-5.015625l2.9819336,5.015625  c0.3608398,0.6083984,1.3598633,0.6054688,1.7192383,0l2.9775391-5.0146484l2.9794922,5.0146484  c0.1801758,0.3037109,0.5073242,0.4892578,0.8598633,0.4892578c0.3530273,0,0.6796875-0.1855469,0.8598633-0.4892578  l3.0698853-5.1682129l1.2477417,2.3763428L18.2192383,88.5117188c-0.2700195,0.4814453-0.0976562,1.0908203,0.3842773,1.3613281  c0.4814453,0.2685547,1.0917969,0.0976562,1.3608398-0.3847656l16.6204834-29.6916504l4.9761963,7.998291  c0.1826172,0.2929688,0.503418,0.4716797,0.8491211,0.4716797s0.6665039-0.1787109,0.8491211-0.4716797l4.9750977-7.9960938  l4.9716797,7.9960938c0.3652344,0.5859375,1.3334961,0.5869141,1.6987305-0.0009766l4.9658203-7.9941406l4.9692383,7.9951172  c0.1821289,0.2929688,0.503418,0.4716797,0.8491211,0.4716797s0.6669922-0.1787109,0.8491211-0.4726562l5.1342773-8.262085  l16.4511719,29.949585C88.3056641,89.8125,88.6479492,90,89.0009766,90c0.1625977,0,0.3276367-0.0400391,0.4804688-0.1230469  c0.4838867-0.2666016,0.6611328-0.8740234,0.3950195-1.3583984L68.1933594,49.0437012l2.6904297-4.5290527L73.8613281,49.5302734z   M41.7475586,37.5527344l-2.9794922-5.0146484c-0.3598633-0.6074219-1.3588867-0.6064453-1.7197266,0l-2.9780273,5.0146484  l-2.980957-5.0146484c-0.1801758-0.3037109-0.5063477-0.4892578-0.859375-0.4892578  c-0.3525391,0-0.6791992,0.1855469-0.859375,0.4892578l-2.9838867,5.0166016l-2.7259521-4.5830078l10.6136475-19.8359375  L44.5857544,32.774292L41.7475586,37.5527344z M65.6889648,65.3720703l-4.9692383-7.9951172  c-0.3642578-0.5859375-1.3334961-0.5869141-1.6987305,0.0009766l-4.9663086,7.9941406l-4.9707031-7.9951172  c-0.1821289-0.2929688-0.503418-0.4716797-0.8491211-0.4716797s-0.6665039,0.1787109-0.8491211,0.4716797l-4.9755859,7.9970703  l-4.7097168-7.5705566l16.6672363-29.7751465l16.2003784,29.4931641L65.6889648,65.3720703z M70.0239258,42.0458984  l-2.9483032,4.9628906l-2.7357788-4.9804688l10.1777344-19.3847656L85.1315308,42.479126l-2.7262573,4.5843506l-2.9838867-5.0175781  c-0.3603516-0.6074219-1.3583984-0.6064453-1.7192383,0l-2.9804688,5.015625l-2.9780273-5.015625  c-0.1801758-0.3027344-0.5068359-0.4892578-0.8598633-0.4892578S70.2041016,41.7421875,70.0239258,42.0458984z"/><text x="0" y="115" fill="#000000" font-size="5px" font-weight="bold" font-family="'Helvetica Neue', Helvetica, Arial-Unicode, Arial, Sans-serif">Created by Made x Made</text><text x="0" y="120" fill="#000000" font-size="5px" font-weight="bold" font-family="'Helvetica Neue', Helvetica, Arial-Unicode, Arial, Sans-serif">from the Noun Project</text></svg>