<svg xmlns="http://www.w3.org/2000/svg" version="1.1" viewBox="-5.0 -10.0 110.0 135.0">
 <path d="m93.059 44.516c0.63672-1.2344 1.1094-2.543 1.2852-3.9492 0.39453-3.1133-0.87891-6.3945-3.2266-8.4727-0.59766-0.52734-1.2617-0.94141-1.9414-1.3555-0.71875-0.4375-1.4453-0.91406-1.8242-1.6914-0.37891-0.77734-0.42969-1.6797-0.58594-2.5195-0.13672-0.75-0.37891-1.4688-0.78125-2.1172-0.79688-1.2773-2.0898-2.2422-3.5586-2.582-0.83984-0.19531-1.7227-0.20703-2.5469-0.47266-0.85156-0.26953-1.3711-0.87891-1.7773-1.6523-0.37891-0.72656-0.66797-1.4922-1.1211-2.1836-0.42969-0.65625-0.95312-1.2539-1.5469-1.7656-1.1875-1.0234-2.6484-1.75-4.1953-2.0234-0.85938-0.14844-1.7148-0.14062-2.5859-0.089844-0.97266 0.058594-1.9844 0.14453-2.9258-0.17578-0.85547-0.29297-1.5273-0.91797-2.1836-1.5156-0.62891-0.57031-1.2734-1.1094-2.0078-1.543-3-1.7617-6.7617-1.8086-9.8008-0.125-0.57031 0.31641-1.0977 0.70703-1.5977 1.1289-0.625-1.1914-1.7109-2.0352-2.9883-2.5078-1.6719-0.61719-3.4766-0.47656-5.1523 0.058594-3.9023 1.2461-7.1484 4.4414-11.434 4.3633-1.7031-0.03125-3.5-0.42188-5.168 0.097656-1.5703 0.48828-2.4414 1.7461-3.0078 3.2188-0.52344 1.3633-0.82031 3-1.9648 4.0117-1.2773 1.125-3.1758 1.0859-4.6289 1.8789-1.5078 0.82031-2.0391 2.3789-2.4258 3.9492-0.20703 0.83594-0.38672 1.7031-0.78516 2.4766-0.37891 0.73438-0.93359 1.3438-1.543 1.8945-1.2383 1.1133-2.707 1.9844-3.7695 3.2852-1.082 1.3281-1.6094 2.9961-1.6641 4.6992-0.054688 1.793 0.39062 3.4648 1.1094 5.0352-0.89062 1.0547-1.7383 2.1719-2.1484 3.5117-0.42969 1.3945-0.22266 2.8086 0.46094 4.082 0.67578 1.2539 1.6797 2.3477 2.6602 3.3711 0.64062 0.66797 1.3242 1.2891 2.0273 1.8945-0.90625 2.6055 1.8789 4.9727 3.6875 6.418 0.66797 0.53125 1.3672 1.0234 2.0742 1.4961-0.27344 1.2188 0.18359 2.4492 0.98828 3.3789 0.96484 1.1172 2.3672 1.7266 3.668 2.3555 2.6367 1.2734 5.2188 2.6484 7.7617 4.1016 0.89453 1.6992 1.7891 3.3984 2.6797 5.1016 0.44922 0.85547 0.89844 1.7148 1.3477 2.5703 0.38672 0.73828 0.73047 1.5156 1.1953 2.207 0.35156 0.52344 0.82031 0.98438 1.4609 1.1055 0.80859 0.15234 1.5898-0.26172 2.3359-0.51172 0.86328-0.28906 1.7461-0.52344 2.6406-0.69141 0.86328-0.16406 1.7617-0.3125 2.6406-0.25391 0.8125 0.61719 1.6289 1.2305 2.4258 1.8672 2.1211 1.6875 4.8789 3.6094 7.6641 2.2773 1.1914-0.57031 2.0781-1.6055 2.9141-2.5938 0.37109-0.4375 0.74609-0.86328 1.1367-1.2812 1.625-0.51953 3.2227-0.40625 4.8359 0.10938 1.4492 0.46094 2.9062 1.0742 4.4609 0.94141 1.3594-0.11719 2.4414-0.81641 3.1641-1.9688 0.79297-1.2656 1.2539-2.7773 1.8008-4.1562 0.72266-1.8125 1.4414-3.625 2.1641-5.4336 3.7773-1.9883 7.4961-4.1836 10.48-7.2656 0.43359-0.44922 0.84766-0.91406 1.2461-1.3945 0.015625-0.015625 0.019531-0.035156 0.027344-0.054687 0.83203-0.49219 1.6289-1.0547 2.3555-1.7383 1.0039-0.94141 1.875-2.0352 2.5625-3.2266 0.60547-1.0469 1.3086-2.375 0.875-3.5898 1.0586-0.96875 2.0625-2.0078 2.8555-3.207 1.7148-2.6016 2.3086-6.4219-0.11719-8.7734zm-55.648 39.465c-0.40625 0.12109-0.8125 0.25391-1.2109 0.40234-0.37891 0.14063-0.77344 0.32031-1.1836 0.33594-0.76562 0.027344-1.1758-0.64062-1.5-1.2305-1.5-2.7305-2.9141-5.5156-4.3555-8.2812 4.1602 2.4414 8.1641 5.125 12.023 8.0117-1.2773 0.074219-2.5938 0.41406-3.7734 0.76172zm32.832-5.9648c-0.57031 1.4336-1.0742 2.9258-1.7578 4.3086-0.63281 1.2773-1.5898 2.1758-3.0742 2.2344-1.5234 0.058594-2.9297-0.60938-4.3555-1.0312-1.2109-0.35938-2.4492-0.47266-3.6719-0.29297 0.14844-0.14062 0.28516-0.29297 0.4375-0.43359 3.7812-3.4375 8.4531-5.6875 12.961-8 0.3125-0.16016 0.625-0.32422 0.9375-0.48438-0.49219 1.2344-0.98047 2.4688-1.4727 3.7031zm21.973-24.707c-0.94141 1.3047-2.1445 2.4102-3.3633 3.4531-1.2852 1.1016-2.6328 2.1211-4.043 3.0547-0.41797 0.27734-0.027344 0.95312 0.39453 0.67578 1.5625-1.0391 3.0547-2.1758 4.4688-3.4102 0.003906-0.003906 0.003906-0.003906 0.007813-0.007812 0.15625 1.0586-0.72266 2.3477-1.2344 3.1484-0.67969 1.0625-1.5156 2.0195-2.4648 2.8516-2.1445 1.8789-4.8398 2.7812-7.4727 3.75-0.46875 0.17188-0.26562 0.92578 0.20703 0.75391 1.3008-0.47656 2.5977-0.94922 3.8438-1.5117-2.9453 2.9766-6.6016 5.1406-10.301 7.0859-4.3203 2.2695-8.8125 4.3086-12.738 7.2422-0.96484 0.72266-1.8945 1.4883-2.7656 2.3242-0.89844 0.85938-1.6836 1.8086-2.4961 2.7461-0.84375 0.97656-1.8047 1.9648-3.1055 2.2695-1.4688 0.34375-2.9336-0.3125-4.1523-1.0859-1.2773-0.8125-2.4258-1.8164-3.6172-2.7461-1.2188-0.94922-2.457-1.875-3.707-2.7773-2.5-1.8047-5.0664-3.5156-7.6875-5.1328-2.6484-1.6328-5.3555-3.1719-8.1172-4.6055-1.3516-0.70312-2.7188-1.3711-4.0898-2.0352-1.2734-0.62109-2.625-1.3438-3.2852-2.6641-0.24609-0.49609-0.35547-1.0352-0.30078-1.5703 1.3906 0.87891 2.8281 1.6836 4.293 2.4375 0.44531 0.23047 0.83984-0.44531 0.39453-0.67578-2.1875-1.1289-4.3477-2.3359-6.3242-3.8125-0.97656-0.72656-1.9141-1.5273-2.75-2.4102-0.80859-0.85547-1.7188-2.1367-1.4453-3.3789 0.19141 0.15625 0.375 0.32422 0.57031 0.47656 1.3281 1.0273 2.7344 1.9375 4.2148 2.7305 0.44141 0.23828 0.83984-0.4375 0.39453-0.67578-3.0234-1.6211-5.7461-3.75-8.0312-6.3047-1.1094-1.2383-2.3477-2.7031-2.4023-4.4531-0.054687-1.6953 0.9375-3.1484 1.9805-4.4062 0.82422 1.5742 1.9023 3.043 2.9961 4.4219 2.6172 3.2969 5.3281 6.5273 8.0898 9.7031 5.5312 6.3477 11.375 12.438 17.711 17.988 0.78125 0.6875 1.5742 1.3633 2.3711 2.0352 0.38281 0.32031 0.9375-0.23047 0.55078-0.55078-6.2227-5.2266-11.98-10.977-17.418-17.012-2.7109-3.0117-5.3398-6.0898-7.918-9.2188-1.2734-1.5469-2.5703-3.0898-3.7695-4.6992-1.1484-1.543-2.2109-3.2031-2.8164-5.043-0.54297-1.6562-0.70703-3.4805-0.26172-5.1758 0.45312-1.7227 1.5586-2.9492 2.918-4.0352 0.53906-0.43359 1.0977-0.85547 1.6328-1.3047-0.16797 1.2031 0.089844 2.4336 0.52734 3.6016 0.63672 1.6914 1.4961 3.3125 2.3594 4.8945 1.832 3.3594 3.9414 6.5586 6.0859 9.7266 4.4414 6.5469 9.0391 12.984 13.785 19.309 2.6602 3.543 5.3594 7.0547 8.0938 10.539 0.30859 0.39453 0.85938-0.16016 0.55078-0.55078-4.7656-6.0742-9.4258-12.227-13.938-18.492-2.2578-3.1328-4.4727-6.293-6.6484-9.4805-2.0742-3.0352-4.1445-6.0781-6.0117-9.2461-1.0391-1.7617-2.0117-3.5625-2.8828-5.4141-0.83203-1.7695-1.7461-3.9297-0.85938-5.8516 0.007813-0.015624 0.003907-0.027343 0.007813-0.039062 0.25781-0.28125 0.5-0.57812 0.71484-0.90625 0.89062-1.3594 1.0039-3 1.5273-4.5 0.26953-0.77344 0.69531-1.4844 1.3867-1.9492 0.67578-0.45312 1.4844-0.65625 2.2578-0.87109 0.60547-0.16797 1.1836-0.36328 1.7148-0.62109 0.37891 1.6953 0.96875 3.3203 1.6172 4.9297 0.78516 1.9375 1.5703 3.875 2.3594 5.8125 1.5859 3.9062 3.1719 7.8125 4.7539 11.719 3.0938 7.625 6.293 15.18 9.9883 22.531 2.0508 4.0781 4.1914 8.1094 6.332 12.141 0.23437 0.44531 0.91016 0.050782 0.67578-0.39453-3.7891-7.1328-7.5703-14.277-10.867-21.656-3.3984-7.6055-6.4141-15.387-9.543-23.105-0.89062-2.1953-1.7812-4.3867-2.6719-6.582-0.76953-1.8984-1.5156-3.7969-1.9375-5.8047 0.48437-0.33203 0.91016-0.75 1.2461-1.3125 0.75781-1.2539 0.98828-2.7383 1.6406-4.0391 0.33984-0.67578 0.79688-1.2734 1.4648-1.6523 0.73438-0.42188 1.5977-0.51562 2.4336-0.51953 1.7695-0.007812 3.5078 0.32812 5.2656-0.015625 0.29688-0.058594 0.58594-0.13281 0.875-0.21484-0.035157 1.9844 0.37891 3.9414 0.82812 5.8711 0.47656 2.0586 0.95312 4.1172 1.4219 6.1797 0.96094 4.2266 1.8984 8.4609 2.8281 12.695 1.8711 8.5234 3.7031 17.059 5.5898 25.582 1.0547 4.7578 2.125 9.5156 3.2266 14.262 0.11328 0.48828 0.86719 0.28125 0.75391-0.20703-1.957-8.4102-3.8047-16.844-5.6406-25.277-1.8398-8.4492-3.6641-16.902-5.5664-25.34-0.52734-2.3398-1.0625-4.6758-1.6016-7.0117-0.53516-2.3047-1.1328-4.625-1.043-7.0039 1.2969-0.46875 2.5273-1.1289 3.7305-1.7852 3.0195-1.6484 6.9648-3.6875 10.191-1.3438 0.62109 0.44922 1.1133 1.0586 1.3945 1.7773-0.15625 8.582-0.30078 17.164-0.35156 25.746-0.050782 8.4297-0.003907 16.859 0.1875 25.289 0.11328 4.8945 0.27734 9.7852 0.49219 14.676 0.023437 0.5 0.80469 0.50391 0.78125 0-0.37891-8.5977-0.58984-17.199-0.66406-25.805-0.074218-8.4297-0.015624-16.863 0.097657-25.293 0.066406-4.8359 0.14844-9.6719 0.23828-14.508 2.5898-2.3203 6.25-3.0273 9.5-1.7461 0.81641 0.32031 1.5977 0.76953 2.2812 1.3164 0.64453 0.51172 1.2109 1.1133 1.8633 1.6133 0.64062 0.49219 1.3516 0.85156 2.1562 0.98828 0.097657 0.015626 0.19141 0.019532 0.28906 0.03125-1.4961 8.5078-3.2188 16.98-4.8828 25.457-0.83984 4.2617-1.625 8.543-2.543 12.789-0.85156 3.9375-1.8594 7.8359-2.8594 11.734-1.1523 4.4805-2.2734 8.9688-3.168 13.508-0.097657 0.49219 0.65625 0.70312 0.75391 0.20703 1.5703-7.9531 3.8789-15.727 5.668-23.629 0.95312-4.2109 1.7344-8.4648 2.5664-12.703 0.84766-4.3047 1.6953-8.6055 2.5391-12.91 0.94141-4.793 1.8633-9.5938 2.7109-14.406 0.55078 0.007812 1.1055-0.03125 1.6602-0.058594 1.6797-0.089844 3.2656 0.18359 4.7383 1.0312 1.3672 0.78906 2.457 1.9531 3.1523 3.3672 0.51172 1.0352 0.95312 2.0547 1.7891 2.7227-2.668 7.5469-5.4688 15.047-8.4141 22.488-2.9297 7.4023-6.0039 14.746-9.2148 22.027-1.8281 4.1484-3.7031 8.2773-5.6172 12.387-0.21094 0.45312 0.46094 0.85156 0.67578 0.39453 3.3828-7.2617 6.6367-14.586 9.75-21.969 3.1055-7.3672 6.0664-14.793 8.8867-22.27 1.582-4.1992 3.1211-8.4141 4.6172-12.645 0.14453 0.066406 0.29687 0.13281 0.46094 0.18359 0.75781 0.22656 1.5547 0.25781 2.3281 0.41797 0.76953 0.16016 1.4922 0.48828 2.1016 0.98047 0.59375 0.47656 1.082 1.082 1.4062 1.7656 0.35547 0.74219 0.45313 1.5625 0.58594 2.3672 0.12891 0.78125 0.3125 1.5781 0.78516 2.2305 0.15625 0.21875 0.34375 0.41016 0.53906 0.58984-2.4727 7.0469-5.8203 13.742-9.6836 20.121-3.8398 6.3438-8.1602 12.375-12.598 18.312-2.5312 3.3867-5.1016 6.7461-7.6523 10.117-0.30469 0.40234 0.375 0.78906 0.67578 0.39453 4.5469-6.0078 9.1562-11.973 13.488-18.141 4.2734-6.0859 8.2773-12.379 11.605-19.035 1.8281-3.6523 3.4414-7.4102 4.8047-11.258 0.17188 0.12109 0.34766 0.23438 0.52344 0.34375 1.3633 0.84375 2.5547 1.7227 3.4492 3.0859 0.84766 1.2891 1.3867 2.7969 1.5039 4.3398 0.26953 3.6016-1.8438 6.7148-3.9336 9.4453-2.2969 3.0078-4.6797 5.9492-7.1445 8.8203-4.9453 5.7617-10.215 11.246-15.777 16.414-0.69922 0.65234-1.4062 1.2969-2.1172 1.9375-0.375 0.33594 0.17969 0.89062 0.55078 0.55078 5.8594-5.2891 11.406-10.918 16.605-16.859 2.5977-2.9688 5.1094-6.0156 7.5273-9.1328 1.1602-1.4961 2.3867-3.0391 3.3438-4.7109 2.1094 2.2734 1.2148 5.7695-0.45312 8.0781z"/>
<text x="0.0" y="117.5" font-size="5.0" font-weight="bold" font-family="Arbeit Regular, Helvetica, Arial-Unicode, Arial, Sans-serif" fill="#000000">Created by Fauzi Arts</text><text x="0.0" y="122.5" font-size="5.0" font-weight="bold" font-family="Arbeit Regular, Helvetica, Arial-Unicode, Arial, Sans-serif" fill="#000000">from Noun Project</text></svg>