<svg xmlns="http://www.w3.org/2000/svg" version="1.1" viewBox="-5.0 -10.0 110.0 135.0">
 <path d="m97.863 65.262c-4.9414-1.0977-9.8828-1.875-15.062-2.3984l0.003907-21.816h5.5117l-0.003906 13.277c0 0.49219 0.39844 0.89062 0.89062 0.89062s0.89062-0.39844 0.89062-0.89062l0.003906-13.277h0.80469c4.8672-0.023437 5.6875-7.0156 1.0195-8.2031 0.62109-5.082-5.2617-8.8945-9.6484-6.293-3.4727-6.9258-14.105-5.4297-15.586 2.1406-5.0664-1.0391-9.9961 3.0117-9.9414 8.1875 0 2.2969 1.8672 4.168 4.1641 4.168h13.59v3.5234h-10.527c-2.6172 0-4.7422 2.1289-4.7422 4.7461 0 2.6172 2.1289 4.7422 4.7422 4.7422h2.4727c0.35547 2.2695 2.3047 4.0156 4.6719 4.0156h3.3828v4.1992c-13.527-0.59375-27.391 0.61328-41.312 1.625v-10.715c1.9492-0.097656 3.5234-0.28906 4.8008-0.65625v7.1445c0 0.49219 0.39844 0.89062 0.89062 0.89062 0.49219 0 0.89062-0.39844 0.89062-0.89062v-7.8867c1.7461-1.0586 2.5703-2.8906 2.8125-6.0352h4.8555c6.1055-0.015625 7.2266-8.8164 1.3711-10.371 0.054687-5.1211-6.8711-7.0586-9.4961-2.707-2.0039-1.1641-4.5625-0.625-6.125 0.91797v-5.1289h23.699c3.2422 0 5.8828-2.6406 5.8828-5.8828 0.10156-7.7812-7.5156-13.785-15.055-11.922-1.9414-11.715-18.164-13.977-23.18-3.1602-6.5742-4.3203-15.625 1.5078-14.387 9.2969-6.9492 1.3555-6.0898 11.551 1.043 11.668h4.2734v5.8711c0 0.49219 0.39844 0.89062 0.89062 0.89062 0.49219 0 0.89062-0.39844 0.89062-0.89062v-5.8711h5.3672v14.594c-0.33594 0.042968-0.67188 0.11328-0.98828 0.22266-1.3281-6.8438-11.262-6.6016-12.234 0.32422-7.0391-1.3477-8.3008 9.1992-1.1406 9.5508h0.71484v12.02c-2.2539 0.050781-4.457 0.074219-6.6367 0.074219-0.49219 0-0.89062 0.39844-0.89062 0.89062v32.48c0 0.49219 0.39844 0.89062 0.89062 0.89062h33.605l28.129-0.007812h33.609c0.49219 0 0.89062-0.39844 0.89062-0.89062v-32.477c0-0.41797-0.28906-0.77734-0.69922-0.87109zm-1.082 1.5898v6.6602c-2.957-1.6797-7.0234-0.88672-9.0625 1.875h-4.375c-0.25781-1.1797-0.54297-2.7578-0.54297-3.4922v-7.2383c4.8008 0.49219 9.3984 1.2031 13.98 2.1953zm-27.156 24.234c-1.332 0.20703-2.543 0.76562-3.5547 1.5703-0.91797-1.6797-2.8633-2.6484-4.8398-2.4375-3.6992-0.070312-3.707-5.5625 0-5.6328h5.7773c4.3906-0.11719 5.5742-4.7773 3.625-7.4141h11.789c-1.875 1.1055-3.2539 3.0234-3.4609 5.3008-5.1641-1.375-10.297 3.3594-9.3359 8.6133zm-48.578-8.6172c-0.20703-2.2734-1.5859-4.1914-3.4609-5.2969h11.875c-0.65234 0.79297-1.0586 1.793-1.0586 2.8984 0 2.5352 2.0625 4.5977 4.5977 4.5977h5.082c1.5547 0 2.8164 1.2656 2.8164 2.8164s-1.2656 2.8164-2.9297 2.8164c-1.707 0-3.2188 0.94141-4.0117 2.3711-1.0156-0.8125-2.2383-1.3789-3.5781-1.5859 0.94922-5.2578-4.1719-9.9844-9.332-8.6172zm1.5664-26.598c-3.9375-0.015625-4.2305-0.1875-4.2539-2.7266h4.2539zm-6.0273-2.4922c0.097656 3.6445 0.96875 4.2148 6.0273 4.2695v0.92187c-6.582-0.10156-7.5-0.66797-7.5859-5.1914zm20.129 44.012c-0.19922-1.2188-0.69922-2.3281-1.4102-3.2852 0.35547-1.1797 1.418-2.0234 2.7734-2.0234 2.5352 0 4.5977-2.0664 4.5977-4.5977 0-2.5352-2.0625-4.5977-4.5977-4.5977h-5.082c-1.5547 0-2.8164-1.2617-2.8164-2.8164 0-1.5547 1.2617-2.8164 2.8203-2.8164l34.008-0.082031c3.6992 0.0625 3.6953 5.5742 0 5.6367h-5.7773c-6.0547 0.16016-6.0703 9.0156-0.003907 9.1953 1.5117-0.18359 3.0977 0.55078 3.5078 2.0586-0.71094 0.94141-1.2227 2.0391-1.4375 3.2422-0.39453 0.20312-0.81641 0.33594-1.2656 0.33594l-24.066 0.082031c-0.44141-0.003906-0.85938-0.13281-1.25-0.33203zm21.812-60.508c0-3.6172 2.9453-6.5586 6.5586-6.5586 1.0625-0.21094 2.9023 1.1602 3.2305-0.44922 0.52734-6.9688 10.41-8.2812 12.727-1.6836 0.097656 0.27344 0.32422 0.48438 0.60156 0.5625 0.27734 0.074219 0.57812 0.015625 0.80469-0.17188 0.83984-0.69141 1.9023-1.0742 2.9961-1.0742 2.6016 0 4.7227 2.1172 4.7227 4.7188 0.082031 0.65234-0.41406 1.3555 0.015625 1.9297 0.16797 0.21484 0.42969 0.34375 0.70312 0.34375 1.3203 0 2.3945 1.0703 2.3945 2.3867 0 1.3164-1.0703 2.3867-2.3867 2.3867l-29.984-0.007813c-1.3125 0-2.3828-1.0703-2.3828-2.3828zm22.496 4.1641v30.848c0 0.87891 0.26953 2.3867 0.50391 3.4922h-5.7461c0.85156-2.0391 0.43359-17.449 0.48438-21.578 4.2734-1.3086 4.2734-7.6523 0.019531-8.9766v-3.7852zm-17.051 5.3047h10.828c3.8945 0.070313 3.8906 5.8594 0 5.9258h-10.828c-3.8984-0.066406-3.8906-5.8555 0-5.9258zm7.1445 9.9453c-1.3828 0-2.5352-0.95312-2.8633-2.2344h6.2461v2.2344zm3.3828 7.7617v7.8359c0 0.73828-0.28516 2.3125-0.54297 3.4922h-39.977c-0.36719-1.6406-0.79297-3.9336-0.79297-5.0195v-4.6797c13.922-1.0039 27.832-2.2266 41.312-1.6289zm-40.98-27.289c0.19531-1.6836 1.625-2.9531 3.3242-2.9531 0.82422 0 1.6133 0.30078 2.2266 0.84766 0.44922 0.42188 1.2578 0.21484 1.4375-0.37891 0.46094-1.3594 1.7344-2.2734 3.1719-2.2734 1.8438 0 3.3477 1.5 3.3477 3.3477 0.011718 0.44141-0.19922 0.90625 0.11328 1.2852 0.15234 0.19922 0.37891 0.32422 0.625 0.34766 4.3672 0.44922 4.0469 6.9219-0.33203 6.9727h-15.734c-4.2852-0.074219-4.2734-6.4414 0-6.5117 0.69141 0.078125 1.707 0.28516 1.8203-0.68359zm-0.33203 8.9766h3.1875c-0.11328 1.3906-0.55469 1.875-3.1875 2.0508zm-21.98-27.273c0.27344 0 0.53516-0.125 0.70312-0.34375 0.46484-0.79688-0.21875-1.7656-0.074218-2.6523 0-4.2227 3.4375-7.6602 7.6602-7.6602 1.7734 0 3.5 0.62109 4.8633 1.7422 0.45312 0.39453 1.2227 0.18359 1.4062-0.39062 3.793-10.543 19.367-8.4688 20.297 2.6875 0.03125 0.55859 0.63672 0.97266 1.168 0.77734 1.0547-0.34766 2.1602-0.52734 3.2852-0.52734 5.7695 0 10.465 4.6953 10.465 10.465 0 2.2617-1.8398 4.1016-4.1016 4.1016l-45.688 0.003906c-5.4258-0.14453-5.3945-8.0742 0.015625-8.2031zm20.199 9.9844v7.2578c-6.1641 0.40234-6.2852 9.5273 0 9.9961v3.0234c-0.007812 0.47656 0.41406 0.90234 0.89062 0.89062 4.2031-0.14453 5.5586-0.96484 5.8438-3.8789h2.6602c-0.1875 2.4766-0.73438 3.8672-2.2578 4.6641-0.007813 0.003906-0.015625 0.007813-0.023438 0.011719-1.2773 0.65625-3.2383 0.90625-6.2539 1.0156-0.47656 0.019531-0.85938 0.41406-0.85938 0.89062v18.035c0 1.2578 0.42969 3.5352 0.75 5.0195h-8.5156c0.39844-0.20312 0.60938-4.2578 0.71484-9.918 0-0.039063 0.003906-0.074219 0.003906-0.10938 0.22656-12.352-0.046875-32.254 0.007813-36.902zm-23.16 16.785c0.89453-0.16016 1.6484 0.85547 2.4766 0.40234 0.44922-0.26172 0.42969-0.77734 0.39453-1.2344 0.17187-5.9492 8.9219-5.75 8.8242 0.19922-0.066406 0.72266 0.82422 1.2227 1.4023 0.78125 0.37891-0.26953 0.81641-0.41797 1.2656-0.50781v6.4727c-3.1523 0-14.363 0.007812-14.363 0.007812-4.0273-0.070312-4.0156-6.0508 0-6.1211zm2.5 7.9062h2.5078c0.12891 6.1445 2.1875 7.0781 9.3594 7.207v4.2539c-4.2344 0.24609-8.1406 0.41406-11.867 0.51953zm-1.332 13.785c0.13281 0.078125 0.27734 0.13281 0.4375 0.13281 0.17969 0 0.33594-0.066406 0.47266-0.15625 3.8594-0.10156 7.8945-0.26953 12.285-0.52344v3.9805c0 1.0742-0.42188 3.3711-0.79297 5.0195h-9.5078c-1.3008-1.7422-3.3555-2.8047-5.6094-2.8047-1.0586 0.023438-2.3945 0.3125-3.4844 0.89453v-6.457c2.0312-0.003906 4.1016-0.039062 6.1992-0.085937zm-6.1953 30.785v-22.027c2.5508-2.4102 7.1133-1.3594 8.3359 1.9414 0.17187 0.42188 0.63281 0.65234 1.0703 0.52344 3.4336-1.043 7.0312 1.9062 6.6562 5.4844 0.1875 1.9648 2.418 0.11719 3.582 0.39062 3.2148 0 5.8281 2.6172 5.8281 5.832 0.14062 0.98828-1.0156 2.7305 0.57422 2.918 2.8828 0.023438 5.2852 2.168 5.7148 4.9375zm93.562 0h-31.758c0.42969-2.7695 2.8281-4.9141 5.7148-4.9375 1.5859-0.18359 0.42969-1.9375 0.57422-2.918 0-3.2148 2.6172-5.832 5.832-5.832 1.1602-0.27344 3.4102 1.5781 3.5781-0.40234-0.36328-3.5742 3.2266-6.5156 6.6562-5.4727 0.4375 0.12891 0.89844-0.097656 1.0703-0.52344 1.2266-3.3047 5.7812-4.3477 8.3359-1.9414v0.58594z"/>
<text x="0.0" y="117.5" font-size="5.0" font-weight="bold" font-family="Arbeit Regular, Helvetica, Arial-Unicode, Arial, Sans-serif" fill="#000000">Created by mangunkarsa</text><text x="0.0" y="122.5" font-size="5.0" font-weight="bold" font-family="Arbeit Regular, Helvetica, Arial-Unicode, Arial, Sans-serif" fill="#000000">from Noun Project</text></svg>