<svg xmlns="http://www.w3.org/2000/svg">
  <defs>
    <symbol id="icon-mountain" viewBox="0 0 100 125">
        <path d="M73.8613281,49.5302734c0.1801758,0.3027344,0.5068359,0.4892578,0.8598633,0.4892578  c0.3525391,0,0.6791992-0.1855469,0.8598633-0.4892578L78.5625,44.5136719l2.9833984,5.0166016  c0.3603516,0.6074219,1.3583984,0.6074219,1.71875,0l2.968689-4.9921875l1.8848267,3.5224609  c0.1801758,0.3369141,0.5258789,0.5283203,0.8828125,0.5283203c0.1591797,0,0.3208008-0.0380859,0.4707031-0.1181641  c0.4873047-0.2607422,0.6704102-0.8662109,0.4101562-1.3535156L75.3911133,20.0361328  c-0.1748047-0.3261719-0.4897461-0.5683594-0.8857422-0.5283203c-0.3701172,0.0019531-0.7094727,0.2070312-0.8813477,0.5351562  L63.1850586,39.9259033L55.2524414,25.484375c-0.1748047-0.3183594-0.5087891-0.5166016-0.8725586-0.5185547  c-0.0014648,0-0.0024414,0-0.0039062,0c-0.3618164,0-0.6958008,0.1953125-0.8725586,0.5117188l-5.4129028,9.6699219  L35.1679688,10.5351562C34.9960938,10.2070312,34.6567383,10.0009766,34.2866211,10c-0.0014648,0-0.0024414,0-0.0039062,0  c-0.3686523,0-0.7075195,0.203125-0.8818359,0.5283203L10.1181641,54.0419922  c-0.2602539,0.4873047-0.0766602,1.0927734,0.4101562,1.3535156c0.1499023,0.0800781,0.3115234,0.1181641,0.4707031,0.1181641  c0.3569336,0,0.7026367-0.1914062,0.8828125-0.5283203L22.559021,35.0307617l2.9683228,4.9907227  c0.3603516,0.6074219,1.3583984,0.6074219,1.71875,0l2.9833984-5.015625l2.9819336,5.015625  c0.3608398,0.6083984,1.3598633,0.6054688,1.7192383,0l2.9775391-5.0146484l2.9794922,5.0146484  c0.1801758,0.3037109,0.5073242,0.4892578,0.8598633,0.4892578c0.3530273,0,0.6796875-0.1855469,0.8598633-0.4892578  l3.0698853-5.1682129l1.2477417,2.3763428L18.2192383,88.5117188c-0.2700195,0.4814453-0.0976562,1.0908203,0.3842773,1.3613281  c0.4814453,0.2685547,1.0917969,0.0976562,1.3608398-0.3847656l16.6204834-29.6916504l4.9761963,7.998291  c0.1826172,0.2929688,0.503418,0.4716797,0.8491211,0.4716797s0.6665039-0.1787109,0.8491211-0.4716797l4.9750977-7.9960938  l4.9716797,7.9960938c0.3652344,0.5859375,1.3334961,0.5869141,1.6987305-0.0009766l4.9658203-7.9941406l4.9692383,7.9951172  c0.1821289,0.2929688,0.503418,0.4716797,0.8491211,0.4716797s0.6669922-0.1787109,0.8491211-0.4726562l5.1342773-8.262085  l16.4511719,29.949585C88.3056641,89.8125,88.6479492,90,89.0009766,90c0.1625977,0,0.3276367-0.0400391,0.4804688-0.1230469  c0.4838867-0.2666016,0.6611328-0.8740234,0.3950195-1.3583984L68.1933594,49.0437012l2.6904297-4.5290527L73.8613281,49.5302734z   M41.7475586,37.5527344l-2.9794922-5.0146484c-0.3598633-0.6074219-1.3588867-0.6064453-1.7197266,0l-2.9780273,5.0146484  l-2.980957-5.0146484c-0.1801758-0.3037109-0.5063477-0.4892578-0.859375-0.4892578  c-0.3525391,0-0.6791992,0.1855469-0.859375,0.4892578l-2.9838867,5.0166016l-2.7259521-4.5830078l10.6136475-19.8359375  L44.5857544,32.774292L41.7475586,37.5527344z M65.6889648,65.3720703l-4.9692383-7.9951172  c-0.3642578-0.5859375-1.3334961-0.5869141-1.6987305,0.0009766l-4.9663086,7.9941406l-4.9707031-7.9951172  c-0.1821289-0.2929688-0.503418-0.4716797-0.8491211-0.4716797s-0.6665039,0.1787109-0.8491211,0.4716797l-4.9755859,7.9970703  l-4.7097168-7.5705566l16.6672363-29.7751465l16.2003784,29.4931641L65.6889648,65.3720703z M70.0239258,42.0458984  l-2.9483032,4.9628906l-2.7357788-4.9804688l10.1777344-19.3847656L85.1315308,42.479126l-2.7262573,4.5843506l-2.9838867-5.0175781  c-0.3603516-0.6074219-1.3583984-0.6064453-1.7192383,0l-2.9804688,5.015625l-2.9780273-5.015625  c-0.1801758-0.3027344-0.5068359-0.4892578-0.8598633-0.4892578S70.2041016,41.7421875,70.0239258,42.0458984z"/>
    </symbol>

    <symbol id="icon-summer" viewBox="0 0 100 125">
        <path d="M89,88H78.7792969v-3.4303589c0.6068115,0.1602783,1.2283936,0.2487183,1.8623047,0.2487183  c4.0556641,0,7.3554688-3.2861328,7.3554688-7.3261719c0-0.2607422-0.015625-0.5244141-0.046875-0.7958984  c1.3115234-1.5537109,2.0283203-3.4980469,2.0283203-5.5302734c0-3.3808594-1.9746094-6.4052734-5.0029297-7.8027344  c0.1298828-0.546875,0.1953125-1.1035156,0.1953125-1.6630859c0-4.0400391-3.2998047-7.3261719-7.3554688-7.3261719  c-3.7304688,0-6.8203125,2.7568359-7.2871094,6.3808594c-2.3974609,1.2617188-3.9160156,3.7421875-3.9160156,6.4775391  c0,1.3125,0.3486328,2.5810547,1.0146484,3.7041016c-0.6660156,1.3066406-1.0146484,2.7480469-1.0146484,4.2060547  c0,5.1435547,4.2021484,9.328125,9.3662109,9.328125c0.2632446,0,0.5314331-0.0183105,0.8007812-0.0426636V88H50.3671875v-4.4888306  c0.7885742,0.2338867,1.6008301,0.3550415,2.4287109,0.3550415c4.75,0,8.6152344-3.8486328,8.6152344-8.5791016  c0-0.3320312-0.0214844-0.6679688-0.0654297-1.0166016c1.5771484-1.8349609,2.4394531-4.1464844,2.4394531-6.5634766  c0-4.0283203-2.3847656-7.6259766-6.0283203-9.2373047c0.1787109-0.6914062,0.2685547-1.3964844,0.2685547-2.1044922  c0-4.7314453-3.8652344-8.5800781-8.6152344-8.5800781c-4.4042969,0-8.046875,3.28125-8.546875,7.5761719  c-2.8613281,1.4628906-4.6777344,4.3945312-4.6777344,7.6318359c0,1.5742188,0.4277344,3.0927734,1.2431641,4.4316406  c-0.8144531,1.5615234-1.2431641,3.2939453-1.2431641,5.046875c0,6.0527344,4.9453125,10.9775391,11.0234375,10.9775391  c0.3811035,0,0.7680664-0.0232544,1.1582031-0.0665283V88H22.1962891v-3.4303589  c0.6072388,0.1602783,1.2290649,0.2487183,1.8623047,0.2487183c4.0556641,0,7.3544922-3.2861328,7.3544922-7.3261719  c0-0.2617188-0.015625-0.5253906-0.046875-0.7958984c1.3115234-1.5527344,2.0283203-3.4980469,2.0283203-5.5302734  c0-3.3808594-1.9746094-6.4052734-5.0019531-7.8027344c0.1298828-0.546875,0.1953125-1.1035156,0.1953125-1.6630859  c0-4.0400391-3.2998047-7.3261719-7.3554688-7.3261719c-3.7304688,0-6.8203125,2.7568359-7.2871094,6.3808594  c-2.3974609,1.2617188-3.9160156,3.7421875-3.9160156,6.4775391c0,1.3125,0.3486328,2.5810547,1.0146484,3.7041016  c-0.6660156,1.3066406-1.0146484,2.7480469-1.0146484,4.2060547c0,5.1435547,4.2021484,9.328125,9.3662109,9.328125  c0.2635498,0,0.5316772-0.0183105,0.8007812-0.0426636V88H11c-0.5527344,0-1,0.4472656-1,1s0.4472656,1,1,1h78  c0.5527344,0,1-0.4472656,1-1S89.5527344,88,89,88z M75.9785156,82.4707031c-4.0615234,0-7.3662109-3.2871094-7.3662109-7.328125  c0-1.3076172,0.359375-2.5986328,1.0380859-3.7353516c0.2041016-0.3408203,0.1865234-0.7714844-0.0449219-1.0947266  c-0.6494141-0.9072266-0.9931641-1.9726562-0.9931641-3.0800781c0-2.1367188,1.2773438-4.0605469,3.2529297-4.9003906  c0.3544922-0.1503906,0.5908203-0.4902344,0.6083984-0.875c0.1289062-2.8505859,2.4755859-5.0830078,5.3417969-5.0830078  c2.953125,0,5.3554688,2.3896484,5.3554688,5.3261719c0,0.6416016-0.1191406,1.2783203-0.3554688,1.8935547  c-0.0976562,0.2558594-0.0869141,0.5390625,0.0302734,0.7861328c0.1162109,0.2470703,0.3291016,0.4355469,0.5888672,0.5214844  c2.7177734,0.9013672,4.5439453,3.4189453,4.5439453,6.2646484c0,1.6835938-0.6435547,3.2900391-1.8125,4.5253906  c-0.2177734,0.2304688-0.3134766,0.5507812-0.2578125,0.8632812c0.0595703,0.3349609,0.0888672,0.6425781,0.0888672,0.9375  c0,2.9365234-2.4023438,5.3261719-5.3554688,5.3261719c-0.6389771,0-1.2627563-0.119812-1.8623047-0.34375v-5.4332886  c3.6850586-0.4898682,6.5400391-3.633667,6.5400391-7.4358521c0-0.5527344-0.4472656-1-1-1s-1,0.4472656-1,1  c0,2.6980591-1.9616699,4.9450684-4.5400391,5.4151611V64.2070312c0-0.5527344-0.4472656-1-1-1s-1,0.4472656-1,1v4.5942993  c-1.2405396-0.4176636-2.1416016-1.5726318-2.1416016-2.9448853c0-0.5527344-0.4472656-1-1-1s-1,0.4472656-1,1  c0,2.4830933,1.7840576,4.5559692,4.1416016,5.0213623v7.8355103c-2.3399048-0.3920288-4.1328125-2.4071045-4.1328125-4.8441772  c0-0.5527344-0.4472656-1-1-1s-1,0.4472656-1,1c0,3.5421143,2.6842651,6.4673462,6.1328125,6.8739624v1.6774902  C76.5099487,82.4517212,76.2437134,82.4707031,75.9785156,82.4707031z M47.2089844,81.4492188  c-4.9755859,0-9.0234375-4.0273438-9.0234375-8.9775391c0-1.6025391,0.4394531-3.1855469,1.2714844-4.5771484  c0.2041016-0.3408203,0.1865234-0.7714844-0.0449219-1.0947266c-0.8027344-1.1210938-1.2265625-2.4375-1.2265625-3.8066406  c0-2.6386719,1.5771484-5.0146484,4.0185547-6.0527344c0.3535156-0.1503906,0.5898438-0.4902344,0.6074219-0.875  c0.1601562-3.5214844,3.0585938-6.2802734,6.5986328-6.2802734c3.6474609,0,6.6152344,2.9521484,6.6152344,6.5800781  c0,0.7900391-0.1484375,1.578125-0.4394531,2.3408203c-0.0976562,0.2548828-0.0869141,0.5390625,0.0302734,0.7861328  c0.1162109,0.2460938,0.3291016,0.4345703,0.5888672,0.5205078c3.3378906,1.1064453,5.5800781,4.1982422,5.5800781,7.6943359  c0,2.0683594-0.7900391,4.0419922-2.2255859,5.5576172c-0.2177734,0.2304688-0.3134766,0.5507812-0.2578125,0.8623047  c0.0732422,0.4150391,0.109375,0.7939453,0.109375,1.1601562c0,3.6279297-2.9677734,6.5791016-6.6152344,6.5791016  c-0.8346558,0-1.6486816-0.1660767-2.4287109-0.4761353v-6.8137817c4.4022827-0.4967651,7.8349609-4.223999,7.8349609-8.7393799  c0-0.5527344-0.4472656-1-1-1s-1,0.4472656-1,1c0,3.4102783-2.539856,6.2345581-5.8349609,6.7186279V59.3691406  c0-0.5527344-0.4472656-1-1-1s-1,0.4472656-1,1v5.7721558c-1.6989746-0.4438477-2.9619141-1.9701538-2.9619141-3.7965698  c0-0.5527344-0.4472656-1-1-1s-1,0.4472656-1,1c0,2.9351807,2.1501465,5.3729248,4.9619141,5.8490601v9.7973022  c-3.0115967-0.385437-5.3486328-2.9467163-5.3486328-6.0457764c0-0.5527344-0.4472656-1-1-1s-1,0.4472656-1,1  c0,4.2028809,3.2305908,7.6669922,7.3486328,8.0619507v2.3568115  C47.9754028,81.4170532,47.5877075,81.4492188,47.2089844,81.4492188z M19.3955078,82.4707031  c-4.0615234,0-7.3662109-3.2871094-7.3662109-7.328125c0-1.3076172,0.359375-2.5986328,1.0380859-3.7353516  c0.2041016-0.3408203,0.1865234-0.7714844-0.0449219-1.0947266c-0.6494141-0.9072266-0.9931641-1.9726562-0.9931641-3.0800781  c0-2.1367188,1.2773438-4.0605469,3.2529297-4.9003906c0.3544922-0.1503906,0.5908203-0.4902344,0.6083984-0.875  c0.1289062-2.8505859,2.4755859-5.0830078,5.3417969-5.0830078c2.953125,0,5.3554688,2.3896484,5.3554688,5.3261719  c0,0.6416016-0.1191406,1.2783203-0.3554688,1.8935547c-0.0976562,0.2558594-0.0869141,0.5390625,0.0292969,0.7861328  c0.1171875,0.2470703,0.3300781,0.4355469,0.5898438,0.5214844c2.7167969,0.9013672,4.5429688,3.4189453,4.5429688,6.2646484  c0,1.6835938-0.6435547,3.2910156-1.8115234,4.5253906c-0.2177734,0.2304688-0.3134766,0.5507812-0.2578125,0.8632812  c0.0595703,0.3320312,0.0878906,0.6386719,0.0878906,0.9375c0,2.9365234-2.4023438,5.3261719-5.3544922,5.3261719  c-0.6386108,0-1.2619629-0.1196289-1.8623047-0.3433228v-5.4337158c3.6849365-0.4898682,6.5390625-3.633667,6.5390625-7.4358521  c0-0.5527344-0.4472656-1-1-1s-1,0.4472656-1,1c0,2.6980591-1.9608765,4.9450684-4.5390625,5.4151611V64.2070312  c0-0.5527344-0.4472656-1-1-1s-1,0.4472656-1,1v4.5942993c-1.2405396-0.4176636-2.1416016-1.5726318-2.1416016-2.9448853  c0-0.5527344-0.4472656-1-1-1s-1,0.4472656-1,1c0,2.4830933,1.7840576,4.5559692,4.1416016,5.0213623v7.8355103  c-2.3399048-0.3920288-4.1328125-2.4071045-4.1328125-4.8441772c0-0.5527344-0.4472656-1-1-1s-1,0.4472656-1,1  c0,3.5421143,2.6842651,6.4673462,6.1328125,6.8739624v1.6768799C19.9254761,82.451355,19.6573486,82.4707031,19.3955078,82.4707031  z"/><path d="M43.1552734,23.1875c0,3.7802734,3.0703125,6.8564453,6.8447266,6.8564453s6.8447266-3.0761719,6.8447266-6.8564453  S53.7744141,16.3310547,50,16.3310547S43.1552734,19.4072266,43.1552734,23.1875z M50,18.3310547  c2.671875,0,4.8447266,2.1787109,4.8447266,4.8564453S52.671875,28.0439453,50,28.0439453s-4.8447266-2.1787109-4.8447266-4.8564453  S47.328125,18.3310547,50,18.3310547z"/><path d="M51,13.3505859V11c0-0.5527344-0.4472656-1-1-1s-1,0.4472656-1,1v2.3505859c0,0.5527344,0.4472656,1,1,1  S51,13.9033203,51,13.3505859z"/><path d="M42.1083984,13.8632812c-0.390625-0.3925781-1.0234375-0.390625-1.4140625-0.0019531  c-0.3916016,0.3896484-0.3916016,1.0234375-0.0019531,1.4140625L42.3505859,16.9375  c0.1953125,0.1962891,0.4521484,0.2939453,0.7080078,0.2939453s0.5107422-0.0976562,0.7060547-0.2919922  c0.3916016-0.3896484,0.3916016-1.0234375,0.0019531-1.4140625L42.1083984,13.8632812z"/><path d="M37.8378906,22.1875c-0.5527344,0-1,0.4472656-1,1s0.4472656,1,1,1h2.3457031c0.5527344,0,1-0.4472656,1-1s-0.4472656-1-1-1  H37.8378906z"/><path d="M42.3505859,29.4365234l-1.6582031,1.6630859c-0.3896484,0.390625-0.3896484,1.0244141,0.0019531,1.4140625  c0.1953125,0.1943359,0.4501953,0.2919922,0.7060547,0.2919922c0.2568359,0,0.5126953-0.0976562,0.7080078-0.2939453  l1.6582031-1.6630859c0.3896484-0.390625,0.3896484-1.0244141-0.0019531-1.4140625  C43.3740234,29.0458984,42.7412109,29.0449219,42.3505859,29.4365234z"/><path d="M49,33.0244141V35.375c0,0.5527344,0.4472656,1,1,1s1-0.4472656,1-1v-2.3505859c0-0.5527344-0.4472656-1-1-1  S49,32.4716797,49,33.0244141z"/><path d="M56.2353516,29.4355469c-0.3916016,0.3896484-0.3916016,1.0234375-0.0019531,1.4140625l1.6582031,1.6621094  c0.1953125,0.1962891,0.4521484,0.2939453,0.7080078,0.2939453s0.5107422-0.0976562,0.7060547-0.2919922  c0.3916016-0.3896484,0.3916016-1.0234375,0.0019531-1.4140625L57.6494141,29.4375  C57.2587891,29.0449219,56.6259766,29.046875,56.2353516,29.4355469z"/><path d="M62.1621094,24.1875c0.5527344,0,1-0.4472656,1-1s-0.4472656-1-1-1h-2.3457031c-0.5527344,0-1,0.4472656-1,1  s0.4472656,1,1,1H62.1621094z"/><path d="M57.8916016,13.8632812l-1.6582031,1.6630859c-0.3896484,0.390625-0.3896484,1.0244141,0.0019531,1.4140625  c0.1953125,0.1943359,0.4501953,0.2919922,0.7060547,0.2919922c0.2568359,0,0.5126953-0.0976562,0.7080078-0.2939453  l1.6582031-1.6630859c0.3896484-0.390625,0.3896484-1.0244141-0.0019531-1.4140625  C58.9150391,13.4716797,58.2822266,13.4716797,57.8916016,13.8632812z"/>
    </symbol>

    <symbol id="icon-main" viewBox="0 0 100 125">
        <path d="M83.9101562,36.1484375c-2.8076172,0.2675781-5.0068359,2.7792969-5.0068359,5.7177734v13.5585938  c-0.9941406-0.8310547-2.2363281-1.2832031-3.5488281-1.2832031c-1.4814453,0-2.875,0.5771484-3.9228516,1.625  L59.3857422,67.8115234c-1.0419922,1.0410156-1.6152344,2.4267578-1.6152344,3.8994141V89c0,0.5527344,0.4472656,1,1,1h17.0537109  c0.5527344,0,1-0.4472656,1-1v-6.4033203c0-0.8447266,0.3046875-1.6621094,0.8583984-2.3007812l9.8681641-11.3867188  C89.1298828,67.0859375,90,64.7539062,90,62.3417969V41.6708984c0-1.5605469-0.6621094-3.0566406-1.8173828-4.1064453  C87.0292969,36.5146484,85.4658203,35.9921875,83.9101562,36.1484375z M88,62.3417969  c0,1.9316406-0.6962891,3.7978516-1.9609375,5.2568359l-9.8681641,11.3876953  c-0.8681641,1.0029297-1.3466797,2.2851562-1.3466797,3.6103516V88H59.7705078V71.7109375  c0-0.9384766,0.3652344-1.8212891,1.0292969-2.4853516l12.0458984-12.0449219c1.3408203-1.3408203,3.6777344-1.3388672,5.0175781,0  c1.3837891,1.3837891,1.3837891,3.6347656,0,5.0185547L70.25,69.8134766c-0.390625,0.390625-0.390625,1.0234375,0,1.4140625  s1.0234375,0.390625,1.4140625,0l7.6132812-7.6142578c1.0761719-1.0761719,1.6171875-2.4882812,1.6230469-3.9013672  c0.0019531-0.0273438,0.0029297-0.0546875,0.0029297-0.0830078V41.8662109c0-1.9189453,1.4042969-3.5566406,3.1962891-3.7275391  c1.0224609-0.0908203,1.9902344,0.2255859,2.7382812,0.9052734C87.5761719,39.7158203,88,40.6728516,88,41.6708984V62.3417969z"/><path d="M28.5683594,55.7666016c-1.0478516-1.0478516-2.4414062-1.625-3.9228516-1.625  c-1.3125,0-2.5546875,0.4521484-3.5488281,1.2822266V41.8662109c0-2.9384766-2.1992188-5.4501953-5.0068359-5.7177734  c-1.5566406-0.15625-3.1191406,0.3662109-4.2724609,1.4160156C10.6621094,38.6142578,10,40.1103516,10,41.6708984v20.6708984  c0,2.4121094,0.8701172,4.7441406,2.4492188,6.5673828l9.8681641,11.3857422  c0.5537109,0.6396484,0.8583984,1.4570312,0.8583984,2.3017578V89c0,0.5527344,0.4472656,1,1,1h17.0537109  c0.5527344,0,1-0.4472656,1-1V71.7109375c0-1.4726562-0.5732422-2.8583984-1.6152344-3.8994141L28.5683594,55.7666016z   M40.2294922,88H25.1757812v-5.4033203c0-1.3251953-0.4785156-2.6074219-1.3466797-3.6113281l-9.8681641-11.3867188  C12.6962891,66.1396484,12,64.2734375,12,62.3417969V41.6708984c0-0.9980469,0.4238281-1.9550781,1.1621094-2.6269531  c0.7490234-0.6796875,1.7197266-0.9970703,2.7382812-0.9052734c1.7919922,0.1708984,3.1962891,1.8085938,3.1962891,3.7275391  v17.7626953c0,0.0283203,0.0009766,0.0556641,0.0029297,0.0830078c0.0058594,1.4140625,0.546875,2.8251953,1.6230469,3.9013672  l7.6132812,7.6142578c0.390625,0.390625,1.0234375,0.390625,1.4140625,0s0.390625-1.0234375,0-1.4140625l-7.6132812-7.6142578  c-1.3837891-1.3837891-1.3837891-3.6347656,0-5.0185547c1.3388672-1.3388672,3.6767578-1.3408203,5.0175781,0l12.0458984,12.0449219  c0.6640625,0.6640625,1.0292969,1.546875,1.0292969,2.4853516V88z"/><path d="M72.5117188,48.8447266c0.875-1.5097656,1.0625-3.3330078,0.5439453-5.2724609  c-0.7548828-2.8154297-2.9316406-5.6074219-5.9355469-7.6767578c3.0039062-2.0703125,5.1806641-4.8623047,5.9355469-7.6777344  c0.5185547-1.9394531,0.3310547-3.7626953-0.5439453-5.2724609c-2.1923828-3.7802734-8.2060547-4.4970703-13.9550781-1.8066406  C58.0429688,14.8730469,54.4013672,10,50,10c-4.3837891,0-8.0126953,4.8320312-8.5478516,11.1337891  c-5.7050781-2.6914062-11.7626953-1.9853516-13.9638672,1.8115234c-0.875,1.5097656-1.0625,3.3330078-0.5439453,5.2724609  c0.7509766,2.7998047,2.9072266,5.5761719,5.9433594,7.6728516c-3.0087891,2.0693359-5.1875,4.8632812-5.9433594,7.6816406  c-0.5185547,1.9394531-0.3310547,3.7626953,0.5439453,5.2714844c2.1914062,3.7822266,8.2080078,4.4970703,13.9550781,1.8076172  C41.9570312,56.9169922,45.5986328,61.7900391,50,61.7900391c4.3837891,0,8.0126953-4.8320312,8.5478516-11.1337891  C64.2529297,53.3486328,70.3125,52.640625,72.5117188,48.8447266z M58.1123047,48.1660156  c-0.3095703-0.1767578-0.6884766-0.1289062-0.9960938,0.0498047c-0.3085938,0.1796875-0.4970703,0.5556641-0.4970703,0.9121094  c0,5.8789062-2.9697266,10.6621094-6.6191406,10.6621094s-6.6191406-4.7832031-6.6191406-10.6503906  c0-0.0117188,0.0029297-0.09375,0.0029297-0.1054688c0-0.3574219-0.2304688-0.6621094-0.5400391-0.8408203  c-0.1435547-0.0830078-0.3125-0.1220703-0.4824219-0.1220703c-0.1953125,0-0.3916016,0.0507812-0.5566406,0.1455078  c-5.0273438,2.890625-10.7919922,2.7197266-12.5859375-0.3759766c-0.6025391-1.0390625-0.7207031-2.3359375-0.3417969-3.7509766  c0.7246094-2.7070312,3.0820312-5.4296875,6.2949219-7.2773438c0.0224609-0.0117188,0.09375-0.0507812,0.1142578-0.0634766  c0.3027344-0.1835938,0.4433594-0.5351562,0.4394531-0.8886719s-0.2373047-0.7001953-0.5429688-0.8769531  c-3.2236328-1.8535156-5.5810547-4.5761719-6.3056641-7.2832031c-0.3789062-1.4150391-0.2607422-2.7119141,0.3417969-3.7509766  c1.7939453-3.0966797,7.5576172-3.2675781,12.5751953-0.3818359c0.0087891,0.0048828,0.0849609,0.0517578,0.09375,0.0566406  c0.3105469,0.1767578,0.6884766,0.1289062,0.9960938-0.0498047c0.3085938-0.1796875,0.4970703-0.5556641,0.4970703-0.9121094  C43.3808594,16.7832031,46.3505859,12,50,12s6.6191406,4.7832031,6.6191406,10.6503906  c0,0.0117188-0.0029297,0.09375-0.0029297,0.1054688c0,0.3574219,0.2304688,0.6621094,0.5400391,0.8408203  c0.3085938,0.1787109,0.7314453,0.1533203,1.0390625-0.0234375c5.0292969-2.8916016,10.7919922-2.71875,12.5859375,0.3759766  c0.6025391,1.0390625,0.7207031,2.3359375,0.3417969,3.7509766c-0.7246094,2.7070312-3.0820312,5.4296875-6.2958984,7.2773438  c-0.015625,0.0078125-0.0761719,0.0400391-0.0908203,0.0488281c-0.3076172,0.1757812-0.4990234,0.5009766-0.5039062,0.8544922  c-0.0048828,0.3544922,0.1787109,0.6845703,0.4814453,0.8681641c0.015625,0.0097656,0.0878906,0.0498047,0.1162109,0.0644531  c3.2167969,1.8535156,5.5693359,4.5732422,6.2929688,7.2763672c0.3789062,1.4150391,0.2607422,2.7119141-0.3417969,3.7519531  c-1.7929688,3.09375-7.5566406,3.2666016-12.5751953,0.3808594C58.1972656,48.2177734,58.1210938,48.1708984,58.1123047,48.1660156z  "/><path d="M60.8974609,31.4013672c-0.484375-1.171875-1.5244141-1.9638672-2.7832031-2.1171875l-1.3183594-0.1611328  l-0.1630859-1.3193359c-0.1552734-1.2539062-0.9453125-2.2919922-2.1132812-2.7763672  c-1.1660156-0.4863281-2.4580078-0.3105469-3.4560547,0.4658203L50,26.3203125l-1.0634766-0.8271484  c-0.9980469-0.7763672-2.2900391-0.9521484-3.4560547-0.4658203c-1.1679688,0.484375-1.9580078,1.5224609-2.1132812,2.7773438  l-0.1630859,1.3183594l-1.3183594,0.1611328c-1.2587891,0.1533203-2.2988281,0.9453125-2.7832031,2.1171875  c-0.4833984,1.1708984-0.3056641,2.4658203,0.4765625,3.4628906l0.8085938,1.03125l-0.8085938,1.0302734  c-0.7822266,0.9970703-0.9599609,2.2919922-0.4765625,3.4628906c0.484375,1.171875,1.5244141,1.9638672,2.7832031,2.1171875  l1.3183594,0.1611328l0.1630859,1.3193359c0.1552734,1.2539062,0.9453125,2.2919922,2.1132812,2.7763672  c0.4355469,0.1816406,0.8896484,0.2705078,1.3388672,0.2705078c0.7519531,0,1.4921875-0.25,2.1171875-0.7363281L50,45.4697266  l1.0634766,0.8271484c0.9980469,0.7763672,2.2900391,0.9511719,3.4560547,0.4658203  c1.1679688-0.484375,1.9580078-1.5224609,2.1132812-2.7773438l0.1630859-1.3183594l1.3183594-0.1611328  c1.2587891-0.1533203,2.2988281-0.9453125,2.7832031-2.1171875c0.4833984-1.1708984,0.3056641-2.4658203-0.4765625-3.4628906  l-0.8085938-1.0302734l0.8085938-1.03125C61.203125,33.8671875,61.3808594,32.5722656,60.8974609,31.4013672z   M57.5546875,36.5126953l1.2919922,1.6474609c0.3310547,0.421875,0.4072266,0.9697266,0.2021484,1.4648438  c-0.2050781,0.4960938-0.6445312,0.8310547-1.1767578,0.8964844l-2.0947266,0.2558594  c-0.4560547,0.0556641-0.8154297,0.4140625-0.8710938,0.8701172l-0.2578125,2.0927734  c-0.0664062,0.53125-0.4003906,0.9707031-0.8945312,1.1757812c-0.4941406,0.2041016-1.0419922,0.1298828-1.4619141-0.1972656  l-1.6777344-1.3046875c-0.3613281-0.28125-0.8671875-0.28125-1.2285156,0L47.7080078,44.71875  c-0.4208984,0.3271484-0.9677734,0.4013672-1.4619141,0.1972656c-0.4941406-0.2050781-0.828125-0.6445312-0.8945312-1.1748047  l-0.2578125-2.09375c-0.0556641-0.4560547-0.4150391-0.8144531-0.8710938-0.8701172l-2.0947266-0.2558594  C41.5957031,40.4560547,41.15625,40.1210938,40.9511719,39.625c-0.2050781-0.4951172-0.1289062-1.0429688,0.2021484-1.4648438  l1.2919922-1.6474609c0.2841797-0.3623047,0.2841797-0.8720703,0-1.234375l-1.2919922-1.6484375  c-0.3310547-0.421875-0.4072266-0.9697266-0.2021484-1.4648438c0.2050781-0.4960938,0.6445312-0.8310547,1.1767578-0.8964844  l2.0947266-0.2558594c0.4560547-0.0556641,0.8154297-0.4140625,0.8710938-0.8701172l0.2578125-2.0927734  c0.0664062-0.53125,0.4003906-0.9707031,0.8945312-1.1757812c0.1845703-0.0761719,0.3769531-0.1142578,0.5664062-0.1142578  c0.3183594,0,0.6318359,0.1064453,0.8955078,0.3115234l1.6777344,1.3046875c0.3613281,0.28125,0.8671875,0.28125,1.2285156,0  l1.6777344-1.3046875c0.4199219-0.3271484,0.9667969-0.4023438,1.4619141-0.1972656  c0.4941406,0.2050781,0.828125,0.6445312,0.8945312,1.1748047l0.2578125,2.09375  c0.0556641,0.4560547,0.4150391,0.8144531,0.8710938,0.8701172l2.0947266,0.2558594  c0.5322266,0.0654297,0.9716797,0.4003906,1.1767578,0.8964844c0.2050781,0.4951172,0.1289062,1.0429688-0.2021484,1.4648438  l-1.2919922,1.6484375C57.2705078,35.640625,57.2705078,36.1503906,57.5546875,36.5126953z"/><path d="M50,30.2773438c-0.5527344,0-1,0.4472656-1,1v1.7929688c0,0.5527344,0.4472656,1,1,1s1-0.4472656,1-1v-1.7929688  C51,30.7246094,50.5527344,30.2773438,50,30.2773438z"/><path d="M48.0419922,33.6152344L46.4824219,32.71875c-0.4804688-0.2753906-1.0898438-0.1113281-1.3652344,0.3691406  c-0.2753906,0.4785156-0.1103516,1.0898438,0.3691406,1.3652344l1.5595703,0.8964844  c0.1572266,0.0898438,0.328125,0.1328125,0.4970703,0.1328125c0.3466797,0,0.6826172-0.1796875,0.8681641-0.5019531  C48.6865234,34.5019531,48.5214844,33.890625,48.0419922,33.6152344z"/><path d="M47.0458984,36.4404297l-1.5595703,0.8964844c-0.4794922,0.2753906-0.6445312,0.8867188-0.3691406,1.3652344  c0.1855469,0.3222656,0.5214844,0.5019531,0.8681641,0.5019531c0.1689453,0,0.3398438-0.0429688,0.4970703-0.1328125  l1.5595703-0.8964844c0.4794922-0.2753906,0.6445312-0.8867188,0.3691406-1.3652344  C48.1347656,36.3300781,47.5234375,36.1660156,47.0458984,36.4404297z"/><path d="M50,37.7197266c-0.5527344,0-1,0.4472656-1,1v1.7929688c0,0.5527344,0.4472656,1,1,1s1-0.4472656,1-1v-1.7929688  C51,38.1669922,50.5527344,37.7197266,50,37.7197266z"/><path d="M54.5136719,37.3369141l-1.5595703-0.8964844c-0.4814453-0.2753906-1.0888672-0.1103516-1.3652344,0.3691406  c-0.2753906,0.4785156-0.1103516,1.0898438,0.3691406,1.3652344l1.5595703,0.8964844  c0.1572266,0.0898438,0.328125,0.1328125,0.4970703,0.1328125c0.3466797,0,0.6826172-0.1796875,0.8681641-0.5019531  C55.1582031,38.2236328,54.9931641,37.6123047,54.5136719,37.3369141z"/><path d="M53.5175781,32.71875l-1.5595703,0.8964844c-0.4794922,0.2753906-0.6445312,0.8867188-0.3691406,1.3652344  c0.1855469,0.3222656,0.5214844,0.5019531,0.8681641,0.5019531c0.1689453,0,0.3408203-0.0429688,0.4970703-0.1328125  l1.5595703-0.8964844c0.4794922-0.2753906,0.6445312-0.8867188,0.3691406-1.3652344  C54.6074219,32.6083984,53.9970703,32.4443359,53.5175781,32.71875z"/>
    </symbol>

    <symbol id="icon-rainforest" viewBox="-5.0 -10.0 110.0 135.0">
        <path d="m97.863 65.262c-4.9414-1.0977-9.8828-1.875-15.062-2.3984l0.003907-21.816h5.5117l-0.003906 13.277c0 0.49219 0.39844 0.89062 0.89062 0.89062s0.89062-0.39844 0.89062-0.89062l0.003906-13.277h0.80469c4.8672-0.023437 5.6875-7.0156 1.0195-8.2031 0.62109-5.082-5.2617-8.8945-9.6484-6.293-3.4727-6.9258-14.105-5.4297-15.586 2.1406-5.0664-1.0391-9.9961 3.0117-9.9414 8.1875 0 2.2969 1.8672 4.168 4.1641 4.168h13.59v3.5234h-10.527c-2.6172 0-4.7422 2.1289-4.7422 4.7461 0 2.6172 2.1289 4.7422 4.7422 4.7422h2.4727c0.35547 2.2695 2.3047 4.0156 4.6719 4.0156h3.3828v4.1992c-13.527-0.59375-27.391 0.61328-41.312 1.625v-10.715c1.9492-0.097656 3.5234-0.28906 4.8008-0.65625v7.1445c0 0.49219 0.39844 0.89062 0.89062 0.89062 0.49219 0 0.89062-0.39844 0.89062-0.89062v-7.8867c1.7461-1.0586 2.5703-2.8906 2.8125-6.0352h4.8555c6.1055-0.015625 7.2266-8.8164 1.3711-10.371 0.054687-5.1211-6.8711-7.0586-9.4961-2.707-2.0039-1.1641-4.5625-0.625-6.125 0.91797v-5.1289h23.699c3.2422 0 5.8828-2.6406 5.8828-5.8828 0.10156-7.7812-7.5156-13.785-15.055-11.922-1.9414-11.715-18.164-13.977-23.18-3.1602-6.5742-4.3203-15.625 1.5078-14.387 9.2969-6.9492 1.3555-6.0898 11.551 1.043 11.668h4.2734v5.8711c0 0.49219 0.39844 0.89062 0.89062 0.89062 0.49219 0 0.89062-0.39844 0.89062-0.89062v-5.8711h5.3672v14.594c-0.33594 0.042968-0.67188 0.11328-0.98828 0.22266-1.3281-6.8438-11.262-6.6016-12.234 0.32422-7.0391-1.3477-8.3008 9.1992-1.1406 9.5508h0.71484v12.02c-2.2539 0.050781-4.457 0.074219-6.6367 0.074219-0.49219 0-0.89062 0.39844-0.89062 0.89062v32.48c0 0.49219 0.39844 0.89062 0.89062 0.89062h33.605l28.129-0.007812h33.609c0.49219 0 0.89062-0.39844 0.89062-0.89062v-32.477c0-0.41797-0.28906-0.77734-0.69922-0.87109zm-1.082 1.5898v6.6602c-2.957-1.6797-7.0234-0.88672-9.0625 1.875h-4.375c-0.25781-1.1797-0.54297-2.7578-0.54297-3.4922v-7.2383c4.8008 0.49219 9.3984 1.2031 13.98 2.1953zm-27.156 24.234c-1.332 0.20703-2.543 0.76562-3.5547 1.5703-0.91797-1.6797-2.8633-2.6484-4.8398-2.4375-3.6992-0.070312-3.707-5.5625 0-5.6328h5.7773c4.3906-0.11719 5.5742-4.7773 3.625-7.4141h11.789c-1.875 1.1055-3.2539 3.0234-3.4609 5.3008-5.1641-1.375-10.297 3.3594-9.3359 8.6133zm-48.578-8.6172c-0.20703-2.2734-1.5859-4.1914-3.4609-5.2969h11.875c-0.65234 0.79297-1.0586 1.793-1.0586 2.8984 0 2.5352 2.0625 4.5977 4.5977 4.5977h5.082c1.5547 0 2.8164 1.2656 2.8164 2.8164s-1.2656 2.8164-2.9297 2.8164c-1.707 0-3.2188 0.94141-4.0117 2.3711-1.0156-0.8125-2.2383-1.3789-3.5781-1.5859 0.94922-5.2578-4.1719-9.9844-9.332-8.6172zm1.5664-26.598c-3.9375-0.015625-4.2305-0.1875-4.2539-2.7266h4.2539zm-6.0273-2.4922c0.097656 3.6445 0.96875 4.2148 6.0273 4.2695v0.92187c-6.582-0.10156-7.5-0.66797-7.5859-5.1914zm20.129 44.012c-0.19922-1.2188-0.69922-2.3281-1.4102-3.2852 0.35547-1.1797 1.418-2.0234 2.7734-2.0234 2.5352 0 4.5977-2.0664 4.5977-4.5977 0-2.5352-2.0625-4.5977-4.5977-4.5977h-5.082c-1.5547 0-2.8164-1.2617-2.8164-2.8164 0-1.5547 1.2617-2.8164 2.8203-2.8164l34.008-0.082031c3.6992 0.0625 3.6953 5.5742 0 5.6367h-5.7773c-6.0547 0.16016-6.0703 9.0156-0.003907 9.1953 1.5117-0.18359 3.0977 0.55078 3.5078 2.0586-0.71094 0.94141-1.2227 2.0391-1.4375 3.2422-0.39453 0.20312-0.81641 0.33594-1.2656 0.33594l-24.066 0.082031c-0.44141-0.003906-0.85938-0.13281-1.25-0.33203zm21.812-60.508c0-3.6172 2.9453-6.5586 6.5586-6.5586 1.0625-0.21094 2.9023 1.1602 3.2305-0.44922 0.52734-6.9688 10.41-8.2812 12.727-1.6836 0.097656 0.27344 0.32422 0.48438 0.60156 0.5625 0.27734 0.074219 0.57812 0.015625 0.80469-0.17188 0.83984-0.69141 1.9023-1.0742 2.9961-1.0742 2.6016 0 4.7227 2.1172 4.7227 4.7188 0.082031 0.65234-0.41406 1.3555 0.015625 1.9297 0.16797 0.21484 0.42969 0.34375 0.70312 0.34375 1.3203 0 2.3945 1.0703 2.3945 2.3867 0 1.3164-1.0703 2.3867-2.3867 2.3867l-29.984-0.007813c-1.3125 0-2.3828-1.0703-2.3828-2.3828zm22.496 4.1641v30.848c0 0.87891 0.26953 2.3867 0.50391 3.4922h-5.7461c0.85156-2.0391 0.43359-17.449 0.48438-21.578 4.2734-1.3086 4.2734-7.6523 0.019531-8.9766v-3.7852zm-17.051 5.3047h10.828c3.8945 0.070313 3.8906 5.8594 0 5.9258h-10.828c-3.8984-0.066406-3.8906-5.8555 0-5.9258zm7.1445 9.9453c-1.3828 0-2.5352-0.95312-2.8633-2.2344h6.2461v2.2344zm3.3828 7.7617v7.8359c0 0.73828-0.28516 2.3125-0.54297 3.4922h-39.977c-0.36719-1.6406-0.79297-3.9336-0.79297-5.0195v-4.6797c13.922-1.0039 27.832-2.2266 41.312-1.6289zm-40.98-27.289c0.19531-1.6836 1.625-2.9531 3.3242-2.9531 0.82422 0 1.6133 0.30078 2.2266 0.84766 0.44922 0.42188 1.2578 0.21484 1.4375-0.37891 0.46094-1.3594 1.7344-2.2734 3.1719-2.2734 1.8438 0 3.3477 1.5 3.3477 3.3477 0.011718 0.44141-0.19922 0.90625 0.11328 1.2852 0.15234 0.19922 0.37891 0.32422 0.625 0.34766 4.3672 0.44922 4.0469 6.9219-0.33203 6.9727h-15.734c-4.2852-0.074219-4.2734-6.4414 0-6.5117 0.69141 0.078125 1.707 0.28516 1.8203-0.68359zm-0.33203 8.9766h3.1875c-0.11328 1.3906-0.55469 1.875-3.1875 2.0508zm-21.98-27.273c0.27344 0 0.53516-0.125 0.70312-0.34375 0.46484-0.79688-0.21875-1.7656-0.074218-2.6523 0-4.2227 3.4375-7.6602 7.6602-7.6602 1.7734 0 3.5 0.62109 4.8633 1.7422 0.45312 0.39453 1.2227 0.18359 1.4062-0.39062 3.793-10.543 19.367-8.4688 20.297 2.6875 0.03125 0.55859 0.63672 0.97266 1.168 0.77734 1.0547-0.34766 2.1602-0.52734 3.2852-0.52734 5.7695 0 10.465 4.6953 10.465 10.465 0 2.2617-1.8398 4.1016-4.1016 4.1016l-45.688 0.003906c-5.4258-0.14453-5.3945-8.0742 0.015625-8.2031zm20.199 9.9844v7.2578c-6.1641 0.40234-6.2852 9.5273 0 9.9961v3.0234c-0.007812 0.47656 0.41406 0.90234 0.89062 0.89062 4.2031-0.14453 5.5586-0.96484 5.8438-3.8789h2.6602c-0.1875 2.4766-0.73438 3.8672-2.2578 4.6641-0.007813 0.003906-0.015625 0.007813-0.023438 0.011719-1.2773 0.65625-3.2383 0.90625-6.2539 1.0156-0.47656 0.019531-0.85938 0.41406-0.85938 0.89062v18.035c0 1.2578 0.42969 3.5352 0.75 5.0195h-8.5156c0.39844-0.20312 0.60938-4.2578 0.71484-9.918 0-0.039063 0.003906-0.074219 0.003906-0.10938 0.22656-12.352-0.046875-32.254 0.007813-36.902zm-23.16 16.785c0.89453-0.16016 1.6484 0.85547 2.4766 0.40234 0.44922-0.26172 0.42969-0.77734 0.39453-1.2344 0.17187-5.9492 8.9219-5.75 8.8242 0.19922-0.066406 0.72266 0.82422 1.2227 1.4023 0.78125 0.37891-0.26953 0.81641-0.41797 1.2656-0.50781v6.4727c-3.1523 0-14.363 0.007812-14.363 0.007812-4.0273-0.070312-4.0156-6.0508 0-6.1211zm2.5 7.9062h2.5078c0.12891 6.1445 2.1875 7.0781 9.3594 7.207v4.2539c-4.2344 0.24609-8.1406 0.41406-11.867 0.51953zm-1.332 13.785c0.13281 0.078125 0.27734 0.13281 0.4375 0.13281 0.17969 0 0.33594-0.066406 0.47266-0.15625 3.8594-0.10156 7.8945-0.26953 12.285-0.52344v3.9805c0 1.0742-0.42188 3.3711-0.79297 5.0195h-9.5078c-1.3008-1.7422-3.3555-2.8047-5.6094-2.8047-1.0586 0.023438-2.3945 0.3125-3.4844 0.89453v-6.457c2.0312-0.003906 4.1016-0.039062 6.1992-0.085937zm-6.1953 30.785v-22.027c2.5508-2.4102 7.1133-1.3594 8.3359 1.9414 0.17187 0.42188 0.63281 0.65234 1.0703 0.52344 3.4336-1.043 7.0312 1.9062 6.6562 5.4844 0.1875 1.9648 2.418 0.11719 3.582 0.39062 3.2148 0 5.8281 2.6172 5.8281 5.832 0.14062 0.98828-1.0156 2.7305 0.57422 2.918 2.8828 0.023438 5.2852 2.168 5.7148 4.9375zm93.562 0h-31.758c0.42969-2.7695 2.8281-4.9141 5.7148-4.9375 1.5859-0.18359 0.42969-1.9375 0.57422-2.918 0-3.2148 2.6172-5.832 5.832-5.832 1.1602-0.27344 3.4102 1.5781 3.5781-0.40234-0.36328-3.5742 3.2266-6.5156 6.6562-5.4727 0.4375 0.12891 0.89844-0.097656 1.0703-0.52344 1.2266-3.3047 5.7812-4.3477 8.3359-1.9414v0.58594z"/>
    </symbol>

    <symbol id="icon-habitat" viewBox="0 0 45 56.25">
        <path d="M35.32,6.542c-2.345,0-4.253,1.908-4.253,4.253c0,0.829,0.248,1.598,0.66,2.253h-0.222  c-0.562-0.146-1.157-0.285-1.816-0.421c-1.237-2.845-4.056-4.719-7.189-4.719c-3.133,0-5.952,1.873-7.189,4.718  c-0.655,0.134-1.24,0.276-1.802,0.422h-0.236c0.412-0.655,0.66-1.424,0.66-2.253c0-2.345-1.908-4.253-4.253-4.253  S5.427,8.45,5.427,10.795c0,0.829,0.248,1.598,0.661,2.253H5.56v25.41h8.24V21.277c0.82-0.221,1.67-0.422,2.596-0.592  c1.485,1.837,3.721,2.916,6.104,2.916s4.619-1.079,6.103-2.916c0.929,0.172,1.778,0.373,2.597,0.592v17.181h8.24v-25.41h-0.527  c0.412-0.655,0.661-1.424,0.661-2.253C39.573,8.45,37.665,6.542,35.32,6.542z M33.067,10.795c0-1.242,1.011-2.253,2.253-2.253  c1.243,0,2.253,1.011,2.253,2.253s-1.011,2.253-2.253,2.253C34.078,13.048,33.067,12.037,33.067,10.795z M7.427,10.795  c0-1.242,1.011-2.253,2.253-2.253c1.242,0,2.253,1.011,2.253,2.253s-1.011,2.253-2.253,2.253  C8.438,13.048,7.427,12.037,7.427,10.795z M7.56,36.458v-4.08h2.12v-2H7.56v-9.25h2.12v-2H7.56v-4.08h4.24v6.8v2.905H9.624v2H11.8  v9.705H7.56z M28.336,18.606l-0.634-0.107l-0.361,0.532c-1.091,1.609-2.901,2.569-4.841,2.569c-1.94,0-3.75-0.961-4.842-2.569  L17.297,18.5l-0.633,0.106c-1.019,0.172-1.965,0.367-2.865,0.592v-4.165c0.727-0.195,1.518-0.374,2.433-0.553l0.564-0.109  l0.189-0.542c0.819-2.346,3.035-3.921,5.514-3.921c2.479,0,4.695,1.576,5.514,3.921l0.189,0.543l0.563,0.109  c0.918,0.179,1.709,0.358,2.434,0.553v4.165C30.303,18.976,29.356,18.779,28.336,18.606z M33.2,36.458v-9.705h2.148v-2H33.2v-2.906  v-6.799h4.24v4.08h-2.148v2h2.148v9.25h-2.148v2h2.148v4.08H33.2z"/><path d="M22.5,14.554c-1.605,0-2.911,1.306-2.911,2.911c0,1.604,1.306,2.91,2.911,2.91s2.911-1.306,2.911-2.91  C25.411,15.859,24.105,14.554,22.5,14.554z M22.5,18.375c-0.502,0-0.911-0.408-0.911-0.91s0.409-0.911,0.911-0.911  s0.911,0.409,0.911,0.911S23.002,18.375,22.5,18.375z"/><circle cx="23.5" cy="13.048" r="1"/><circle cx="25.589" cy="14.554" r="1"/><circle cx="21.143" cy="13.048" r="1"/><circle cx="19.143" cy="14.554" r="1"/>
    </symbol>


    <!-- Icons go here -->
  </defs>
</svg>
