<svg xmlns="http://www.w3.org/2000/svg" xmlns:xlink="http://www.w3.org/1999/xlink" version="1.1" x="0px" y="0px" viewBox="0 0 100 125" style="enable-background:new 0 0 100 100;" xml:space="preserve"><path d="M83.9101562,36.1484375c-2.8076172,0.2675781-5.0068359,2.7792969-5.0068359,5.7177734v13.5585938  c-0.9941406-0.8310547-2.2363281-1.2832031-3.5488281-1.2832031c-1.4814453,0-2.875,0.5771484-3.9228516,1.625  L59.3857422,67.8115234c-1.0419922,1.0410156-1.6152344,2.4267578-1.6152344,3.8994141V89c0,0.5527344,0.4472656,1,1,1h17.0537109  c0.5527344,0,1-0.4472656,1-1v-6.4033203c0-0.8447266,0.3046875-1.6621094,0.8583984-2.3007812l9.8681641-11.3867188  C89.1298828,67.0859375,90,64.7539062,90,62.3417969V41.6708984c0-1.5605469-0.6621094-3.0566406-1.8173828-4.1064453  C87.0292969,36.5146484,85.4658203,35.9921875,83.9101562,36.1484375z M88,62.3417969  c0,1.9316406-0.6962891,3.7978516-1.9609375,5.2568359l-9.8681641,11.3876953  c-0.8681641,1.0029297-1.3466797,2.2851562-1.3466797,3.6103516V88H59.7705078V71.7109375  c0-0.9384766,0.3652344-1.8212891,1.0292969-2.4853516l12.0458984-12.0449219c1.3408203-1.3408203,3.6777344-1.3388672,5.0175781,0  c1.3837891,1.3837891,1.3837891,3.6347656,0,5.0185547L70.25,69.8134766c-0.390625,0.390625-0.390625,1.0234375,0,1.4140625  s1.0234375,0.390625,1.4140625,0l7.6132812-7.6142578c1.0761719-1.0761719,1.6171875-2.4882812,1.6230469-3.9013672  c0.0019531-0.0273438,0.0029297-0.0546875,0.0029297-0.0830078V41.8662109c0-1.9189453,1.4042969-3.5566406,3.1962891-3.7275391  c1.0224609-0.0908203,1.9902344,0.2255859,2.7382812,0.9052734C87.5761719,39.7158203,88,40.6728516,88,41.6708984V62.3417969z"/><path d="M28.5683594,55.7666016c-1.0478516-1.0478516-2.4414062-1.625-3.9228516-1.625  c-1.3125,0-2.5546875,0.4521484-3.5488281,1.2822266V41.8662109c0-2.9384766-2.1992188-5.4501953-5.0068359-5.7177734  c-1.5566406-0.15625-3.1191406,0.3662109-4.2724609,1.4160156C10.6621094,38.6142578,10,40.1103516,10,41.6708984v20.6708984  c0,2.4121094,0.8701172,4.7441406,2.4492188,6.5673828l9.8681641,11.3857422  c0.5537109,0.6396484,0.8583984,1.4570312,0.8583984,2.3017578V89c0,0.5527344,0.4472656,1,1,1h17.0537109  c0.5527344,0,1-0.4472656,1-1V71.7109375c0-1.4726562-0.5732422-2.8583984-1.6152344-3.8994141L28.5683594,55.7666016z   M40.2294922,88H25.1757812v-5.4033203c0-1.3251953-0.4785156-2.6074219-1.3466797-3.6113281l-9.8681641-11.3867188  C12.6962891,66.1396484,12,64.2734375,12,62.3417969V41.6708984c0-0.9980469,0.4238281-1.9550781,1.1621094-2.6269531  c0.7490234-0.6796875,1.7197266-0.9970703,2.7382812-0.9052734c1.7919922,0.1708984,3.1962891,1.8085938,3.1962891,3.7275391  v17.7626953c0,0.0283203,0.0009766,0.0556641,0.0029297,0.0830078c0.0058594,1.4140625,0.546875,2.8251953,1.6230469,3.9013672  l7.6132812,7.6142578c0.390625,0.390625,1.0234375,0.390625,1.4140625,0s0.390625-1.0234375,0-1.4140625l-7.6132812-7.6142578  c-1.3837891-1.3837891-1.3837891-3.6347656,0-5.0185547c1.3388672-1.3388672,3.6767578-1.3408203,5.0175781,0l12.0458984,12.0449219  c0.6640625,0.6640625,1.0292969,1.546875,1.0292969,2.4853516V88z"/><path d="M72.5117188,48.8447266c0.875-1.5097656,1.0625-3.3330078,0.5439453-5.2724609  c-0.7548828-2.8154297-2.9316406-5.6074219-5.9355469-7.6767578c3.0039062-2.0703125,5.1806641-4.8623047,5.9355469-7.6777344  c0.5185547-1.9394531,0.3310547-3.7626953-0.5439453-5.2724609c-2.1923828-3.7802734-8.2060547-4.4970703-13.9550781-1.8066406  C58.0429688,14.8730469,54.4013672,10,50,10c-4.3837891,0-8.0126953,4.8320312-8.5478516,11.1337891  c-5.7050781-2.6914062-11.7626953-1.9853516-13.9638672,1.8115234c-0.875,1.5097656-1.0625,3.3330078-0.5439453,5.2724609  c0.7509766,2.7998047,2.9072266,5.5761719,5.9433594,7.6728516c-3.0087891,2.0693359-5.1875,4.8632812-5.9433594,7.6816406  c-0.5185547,1.9394531-0.3310547,3.7626953,0.5439453,5.2714844c2.1914062,3.7822266,8.2080078,4.4970703,13.9550781,1.8076172  C41.9570312,56.9169922,45.5986328,61.7900391,50,61.7900391c4.3837891,0,8.0126953-4.8320312,8.5478516-11.1337891  C64.2529297,53.3486328,70.3125,52.640625,72.5117188,48.8447266z M58.1123047,48.1660156  c-0.3095703-0.1767578-0.6884766-0.1289062-0.9960938,0.0498047c-0.3085938,0.1796875-0.4970703,0.5556641-0.4970703,0.9121094  c0,5.8789062-2.9697266,10.6621094-6.6191406,10.6621094s-6.6191406-4.7832031-6.6191406-10.6503906  c0-0.0117188,0.0029297-0.09375,0.0029297-0.1054688c0-0.3574219-0.2304688-0.6621094-0.5400391-0.8408203  c-0.1435547-0.0830078-0.3125-0.1220703-0.4824219-0.1220703c-0.1953125,0-0.3916016,0.0507812-0.5566406,0.1455078  c-5.0273438,2.890625-10.7919922,2.7197266-12.5859375-0.3759766c-0.6025391-1.0390625-0.7207031-2.3359375-0.3417969-3.7509766  c0.7246094-2.7070312,3.0820312-5.4296875,6.2949219-7.2773438c0.0224609-0.0117188,0.09375-0.0507812,0.1142578-0.0634766  c0.3027344-0.1835938,0.4433594-0.5351562,0.4394531-0.8886719s-0.2373047-0.7001953-0.5429688-0.8769531  c-3.2236328-1.8535156-5.5810547-4.5761719-6.3056641-7.2832031c-0.3789062-1.4150391-0.2607422-2.7119141,0.3417969-3.7509766  c1.7939453-3.0966797,7.5576172-3.2675781,12.5751953-0.3818359c0.0087891,0.0048828,0.0849609,0.0517578,0.09375,0.0566406  c0.3105469,0.1767578,0.6884766,0.1289062,0.9960938-0.0498047c0.3085938-0.1796875,0.4970703-0.5556641,0.4970703-0.9121094  C43.3808594,16.7832031,46.3505859,12,50,12s6.6191406,4.7832031,6.6191406,10.6503906  c0,0.0117188-0.0029297,0.09375-0.0029297,0.1054688c0,0.3574219,0.2304688,0.6621094,0.5400391,0.8408203  c0.3085938,0.1787109,0.7314453,0.1533203,1.0390625-0.0234375c5.0292969-2.8916016,10.7919922-2.71875,12.5859375,0.3759766  c0.6025391,1.0390625,0.7207031,2.3359375,0.3417969,3.7509766c-0.7246094,2.7070312-3.0820312,5.4296875-6.2958984,7.2773438  c-0.015625,0.0078125-0.0761719,0.0400391-0.0908203,0.0488281c-0.3076172,0.1757812-0.4990234,0.5009766-0.5039062,0.8544922  c-0.0048828,0.3544922,0.1787109,0.6845703,0.4814453,0.8681641c0.015625,0.0097656,0.0878906,0.0498047,0.1162109,0.0644531  c3.2167969,1.8535156,5.5693359,4.5732422,6.2929688,7.2763672c0.3789062,1.4150391,0.2607422,2.7119141-0.3417969,3.7519531  c-1.7929688,3.09375-7.5566406,3.2666016-12.5751953,0.3808594C58.1972656,48.2177734,58.1210938,48.1708984,58.1123047,48.1660156z  "/><path d="M60.8974609,31.4013672c-0.484375-1.171875-1.5244141-1.9638672-2.7832031-2.1171875l-1.3183594-0.1611328  l-0.1630859-1.3193359c-0.1552734-1.2539062-0.9453125-2.2919922-2.1132812-2.7763672  c-1.1660156-0.4863281-2.4580078-0.3105469-3.4560547,0.4658203L50,26.3203125l-1.0634766-0.8271484  c-0.9980469-0.7763672-2.2900391-0.9521484-3.4560547-0.4658203c-1.1679688,0.484375-1.9580078,1.5224609-2.1132812,2.7773438  l-0.1630859,1.3183594l-1.3183594,0.1611328c-1.2587891,0.1533203-2.2988281,0.9453125-2.7832031,2.1171875  c-0.4833984,1.1708984-0.3056641,2.4658203,0.4765625,3.4628906l0.8085938,1.03125l-0.8085938,1.0302734  c-0.7822266,0.9970703-0.9599609,2.2919922-0.4765625,3.4628906c0.484375,1.171875,1.5244141,1.9638672,2.7832031,2.1171875  l1.3183594,0.1611328l0.1630859,1.3193359c0.1552734,1.2539062,0.9453125,2.2919922,2.1132812,2.7763672  c0.4355469,0.1816406,0.8896484,0.2705078,1.3388672,0.2705078c0.7519531,0,1.4921875-0.25,2.1171875-0.7363281L50,45.4697266  l1.0634766,0.8271484c0.9980469,0.7763672,2.2900391,0.9511719,3.4560547,0.4658203  c1.1679688-0.484375,1.9580078-1.5224609,2.1132812-2.7773438l0.1630859-1.3183594l1.3183594-0.1611328  c1.2587891-0.1533203,2.2988281-0.9453125,2.7832031-2.1171875c0.4833984-1.1708984,0.3056641-2.4658203-0.4765625-3.4628906  l-0.8085938-1.0302734l0.8085938-1.03125C61.203125,33.8671875,61.3808594,32.5722656,60.8974609,31.4013672z   M57.5546875,36.5126953l1.2919922,1.6474609c0.3310547,0.421875,0.4072266,0.9697266,0.2021484,1.4648438  c-0.2050781,0.4960938-0.6445312,0.8310547-1.1767578,0.8964844l-2.0947266,0.2558594  c-0.4560547,0.0556641-0.8154297,0.4140625-0.8710938,0.8701172l-0.2578125,2.0927734  c-0.0664062,0.53125-0.4003906,0.9707031-0.8945312,1.1757812c-0.4941406,0.2041016-1.0419922,0.1298828-1.4619141-0.1972656  l-1.6777344-1.3046875c-0.3613281-0.28125-0.8671875-0.28125-1.2285156,0L47.7080078,44.71875  c-0.4208984,0.3271484-0.9677734,0.4013672-1.4619141,0.1972656c-0.4941406-0.2050781-0.828125-0.6445312-0.8945312-1.1748047  l-0.2578125-2.09375c-0.0556641-0.4560547-0.4150391-0.8144531-0.8710938-0.8701172l-2.0947266-0.2558594  C41.5957031,40.4560547,41.15625,40.1210938,40.9511719,39.625c-0.2050781-0.4951172-0.1289062-1.0429688,0.2021484-1.4648438  l1.2919922-1.6474609c0.2841797-0.3623047,0.2841797-0.8720703,0-1.234375l-1.2919922-1.6484375  c-0.3310547-0.421875-0.4072266-0.9697266-0.2021484-1.4648438c0.2050781-0.4960938,0.6445312-0.8310547,1.1767578-0.8964844  l2.0947266-0.2558594c0.4560547-0.0556641,0.8154297-0.4140625,0.8710938-0.8701172l0.2578125-2.0927734  c0.0664062-0.53125,0.4003906-0.9707031,0.8945312-1.1757812c0.1845703-0.0761719,0.3769531-0.1142578,0.5664062-0.1142578  c0.3183594,0,0.6318359,0.1064453,0.8955078,0.3115234l1.6777344,1.3046875c0.3613281,0.28125,0.8671875,0.28125,1.2285156,0  l1.6777344-1.3046875c0.4199219-0.3271484,0.9667969-0.4023438,1.4619141-0.1972656  c0.4941406,0.2050781,0.828125,0.6445312,0.8945312,1.1748047l0.2578125,2.09375  c0.0556641,0.4560547,0.4150391,0.8144531,0.8710938,0.8701172l2.0947266,0.2558594  c0.5322266,0.0654297,0.9716797,0.4003906,1.1767578,0.8964844c0.2050781,0.4951172,0.1289062,1.0429688-0.2021484,1.4648438  l-1.2919922,1.6484375C57.2705078,35.640625,57.2705078,36.1503906,57.5546875,36.5126953z"/><path d="M50,30.2773438c-0.5527344,0-1,0.4472656-1,1v1.7929688c0,0.5527344,0.4472656,1,1,1s1-0.4472656,1-1v-1.7929688  C51,30.7246094,50.5527344,30.2773438,50,30.2773438z"/><path d="M48.0419922,33.6152344L46.4824219,32.71875c-0.4804688-0.2753906-1.0898438-0.1113281-1.3652344,0.3691406  c-0.2753906,0.4785156-0.1103516,1.0898438,0.3691406,1.3652344l1.5595703,0.8964844  c0.1572266,0.0898438,0.328125,0.1328125,0.4970703,0.1328125c0.3466797,0,0.6826172-0.1796875,0.8681641-0.5019531  C48.6865234,34.5019531,48.5214844,33.890625,48.0419922,33.6152344z"/><path d="M47.0458984,36.4404297l-1.5595703,0.8964844c-0.4794922,0.2753906-0.6445312,0.8867188-0.3691406,1.3652344  c0.1855469,0.3222656,0.5214844,0.5019531,0.8681641,0.5019531c0.1689453,0,0.3398438-0.0429688,0.4970703-0.1328125  l1.5595703-0.8964844c0.4794922-0.2753906,0.6445312-0.8867188,0.3691406-1.3652344  C48.1347656,36.3300781,47.5234375,36.1660156,47.0458984,36.4404297z"/><path d="M50,37.7197266c-0.5527344,0-1,0.4472656-1,1v1.7929688c0,0.5527344,0.4472656,1,1,1s1-0.4472656,1-1v-1.7929688  C51,38.1669922,50.5527344,37.7197266,50,37.7197266z"/><path d="M54.5136719,37.3369141l-1.5595703-0.8964844c-0.4814453-0.2753906-1.0888672-0.1103516-1.3652344,0.3691406  c-0.2753906,0.4785156-0.1103516,1.0898438,0.3691406,1.3652344l1.5595703,0.8964844  c0.1572266,0.0898438,0.328125,0.1328125,0.4970703,0.1328125c0.3466797,0,0.6826172-0.1796875,0.8681641-0.5019531  C55.1582031,38.2236328,54.9931641,37.6123047,54.5136719,37.3369141z"/><path d="M53.5175781,32.71875l-1.5595703,0.8964844c-0.4794922,0.2753906-0.6445312,0.8867188-0.3691406,1.3652344  c0.1855469,0.3222656,0.5214844,0.5019531,0.8681641,0.5019531c0.1689453,0,0.3408203-0.0429688,0.4970703-0.1328125  l1.5595703-0.8964844c0.4794922-0.2753906,0.6445312-0.8867188,0.3691406-1.3652344  C54.6074219,32.6083984,53.9970703,32.4443359,53.5175781,32.71875z"/><text x="0" y="115" fill="#000000" font-size="5px" font-weight="bold" font-family="'Helvetica Neue', Helvetica, Arial-Unicode, Arial, Sans-serif">Created by Made x Made</text><text x="0" y="120" fill="#000000" font-size="5px" font-weight="bold" font-family="'Helvetica Neue', Helvetica, Arial-Unicode, Arial, Sans-serif">from the Noun Project</text></svg>