<svg xmlns="http://www.w3.org/2000/svg" version="1.1" viewBox="-5.0 -10.0 110.0 135.0">
 <path d="m94.117 14.312c-0.86328-0.96094-1.9961-1.7695-3.207-2.2227-1.0312-1.8203-2.1953-3.4531-3.9922-4.5898-0.53906-0.34375-1.1914-0.57422-1.6953-0.95312-2.0625-2.1641-5.0273-3.6445-8.0781-3.3828-2.6094 0.21094-5.0195 1.3633-6.7266 3.3789-1.8086 1.9766-1.5352 4.3945 1.375 4.8398-1.0859 1.4805-1.9922 3.0898-2.6914 4.7812-1.3438 3.2539-1.7617 6.2969-4.8711 8.5312-2.9883 2.1445-7.2031 2.5625-10.734 3.2227-1.7344 0.32422-3.418 0.78906-5.1328 1.1992-12.672 2.4844-22.836 9.6758-30.223 20.094-1.9844 2.9297-5.3984 5.9258-4.6289 9.8125-2.5469 4.2578-7.1914 7.2227-9.1094 11.898-0.30859 0.77344-0.70703 2.0625 0.19531 2.5781 0.58203 0.29297 1.3203 0.074219 1.8906-0.13672 1.1953-0.44141 2.3516-1.0234 3.5312-1.5117 12.512-5.8789 15.652 1.125 27.062 3.7852 0.42578 1.6328 1.4414 3.4531 2.957 4.3008 0.68359 3.043 1.6875 6.0117 2.8711 8.8789 0.26953 0.98047-0.64844 0.67969-1.2383 0.68359-1.5039 0.10156-3.5547 1.2109-3.4375 2.9414 0.019531 0.097656 0.023437 0.085938 0.085937 0.15234 0.33984-0.027344 0.69531-0.48047 0.99219-0.64453 0.70703-0.38672 1.9141-0.58984 2.7227-0.52344 2.0352 0.17188 3.332 1.7188 5.1094 2.4922 2.7188 1.0781 6.0391 0.82422 8.3672 2.8203 0.11328 0.09375 0.125 0.13672 0.27344 0.14453 0.10547-0.066406 0.15234-0.10156 0.1875-0.22656 0.1875-1.5664-1.3008-2.8477-2.5273-3.5781 1.0703 0.027344 1.9922 0.16797 3.0195 0.49219 0.46875 0.125 1.3789 0.89063 1.7305 0.73047 0.082032-0.085937 0.10547-0.10938 0.10938-0.23438 0.03125-0.62109-0.97656-1.7539-1.4141-2.1445-0.66406-0.58594-1.375-0.86328-2.2266-1.0625-0.98437-0.48438-2.0742-0.57812-3.1562-0.57812-2.9727-0.10156-4.3203-0.33203-5.6484-3.1875-1.0625-2.2891-1.5586-4.7695-2.3008-7.1641 1.4219-0.97656 2.2227-2.4609 2.6133-4.1133 0.76172-0.14844 1.5703-0.25 2.3047-0.49609 0.3125 0.26563 2.0391 1.6016 2.1523 1.7656 0.36328 0.52734 0.60547 1.418 0.83984 2.0312 0.80859 2.1797 2.1289 5.3516 2.9688 7.4727-1.8164-0.40625-3.9492 0.30859-4.4883 2.2422 1.2695-0.125 2.8516-0.44922 4.0938-0.36719 1.207 0.078125 2.1328 0.91406 3.1602 1.4531 0.69141 0.36328 1.4023 0.625 2.1602 0.81641 2.7578 0.66406 5.8594 0.41797 8.2812 2.0703 0.10156 0.011718 0.18359-0.042969 0.25391-0.10938 0.17578-1.8359-2.0039-3.1289-3.5469-3.5625 1.9844-0.28906 4.1172 0.1875 5.6641 1.4492 0.12891-0.027343 0.13281-0.023437 0.21875-0.125 0.10938-0.49219-0.26953-1.1875-0.53125-1.5938-1.2227-2.0625-3.875-2.2344-6.0312-2.3008-2.8477 0.035156-4.4023 0.65625-6.1758-2.0391-1.3828-2.1016-2.2266-4.6797-2.7852-7.1094 1.875-0.95703 2.1406-2.4727 2.8594-4.2695 15.852-4.2305 27.52-15.617 26.441-32.848-0.24219-5.3555-4.543-12.086-0.58203-16.922 0.75391-0.87891 1.7188-1.4219 2.6641-2.0625 0.94531-0.58594 1.7344-1.3945 2.668-1.9883 2.2148-1.0039 5.4453-1.707 7.1641 0.51172 0.11328-2.2344-0.29688-3.8203-1.8164-5.5156zm-23.855-4.9492c-0.042969-0.90234 0.39453-1.6016 0.97266-2.2539 3.0156-3.5508 8.6211-3.918 12.168-0.96484-4.082-0.85938-8.4688 1.0195-10.898 4.3359-0.87109-0.14062-1.7305-0.33594-2.2461-1.1211zm-15.691 82.465c0.9375-0.14062 1.7109 0.52734 2.3789 1.082-0.30078-0.13672-0.60156-0.26172-0.91406-0.37109-0.95703-0.27734-1.8867-0.35937-2.875-0.41797 0.48047-0.16016 0.90625-0.26172 1.4102-0.29297zm-8.3711-2.3672c1.7969 2.1172 4.5234 1.6836 6.9922 1.8789-1.7695 0.80469-2.9961 1.3008-4.957 0.83984 2.3047 1.1016 4.457 0.81641 6.3555 2.8438l0.32812 0.42969c-2.1094-1.4883-4.6641-1.4648-7.0312-2.2617-1.0586-0.39453-1.9062-1.1016-2.8516-1.6914-1.8047-1.1289-3.3086-1.1016-5.332-0.64453 0.72266-0.39062 1.4336-0.70312 2.2734-0.65234 0.58594 0.042969 1.3398 0.20312 1.7109-0.38672 0.68359-1.1523-0.42969-2.4492-0.76172-3.5625-0.69141-1.8359-1.4414-4.0078-1.8047-5.9297 0.53516 0.0625 1.0469 0.03125 1.5781-0.039063 0.87891 3.0898 1.4883 6.5938 3.5039 9.1797zm-2.082-11.328c-2.1875 2.9688-5.1875 0.38672-5.9688-2.2891 2.3711 0.35547 4.6445 0.28906 7.0234 0.082031-0.28125 0.79688-0.57812 1.5039-1.0547 2.207zm22.168 9.5078c1.0234-0.023437 1.9219 0.58594 2.6484 1.2422-0.375-0.16797-0.75-0.31641-1.1445-0.44531-1.0039-0.27734-1.9531-0.31641-2.9883-0.26172 0.48047-0.32031 0.91016-0.46875 1.4844-0.53516zm-8.4844-1.2461c1.8359 1.6797 4.3594 1.2031 6.6328 1.0938-1.9844 1.1133-2.75 1.5703-5.0586 1.0859 2.1055 1.3359 4.8633 0.73047 6.8633 2.3281 0.16797 0.12109 0.32031 0.26562 0.47656 0.40234-2.5156-1.1641-5.0977-0.85938-7.6328-1.6602-1.5977-0.42578-2.8398-1.6992-4.4531-2.0547-1.1133-0.20703-2.3164 0.019531-3.4219 0.17578 1.7852-1.25 2.625-0.17969 3.5547-0.54297 1.3984-0.72266-0.41406-3.1094-0.69922-4.1758-0.73828-1.8438-1.4219-3.707-2.1875-5.5391 0.62109 0.15625 1.2578 0.17188 1.8945 0.12109 0.74219 2.7773 1.8438 6.7656 4.0312 8.7656zm-2.1719-11.043c-1.0469 1.7734-3.4609 1.6289-4.9609 0.54297-0.34766-0.24609-0.66797-0.50391-0.98828-0.78125 2.2422-0.45703 4.5195-0.99609 6.7148-1.6523 0.03125 0.34375-0.5625 1.5664-0.76562 1.8906zm26.238-40.613c2.0703 5.8555 1.3906 12.629-0.75391 18.371-4.4141 12.098-16.805 17.684-28.566 20.316-5.6914 1.5469-11.762 2.6328-17.504 0.72656-11.531-4.0469-13.648-8.75-26.52-2.6641 4.3789-3.6172 9.5547-6.9375 15.391-7.168-4.3164-0.23047-8.7734 1.6016-12.254 4.0898-1.375 1.0078-4.7812 4.082-6.2812 4.2773-0.14453 0.023438-0.32031-0.019531-0.36328-0.18359 0.50781-3.6758 4.5195-6.8633 6.7734-9.6406 1-1.1836 1.8984-2.3984 2.7656-3.6758 0.26953 0.015625 0.53906 0.046875 0.80859 0.074219 1.7266 2.9102 5.7148 3.1953 8.75 3.0547 2.6172 2.3516 5.6992 2.543 9.0117 2.1758 3.4141 2.1367 6.9961 2.168 10.777 1.2891 9.293 4.0156 19.66-2.1836 24.539-10.188 1.8047-2.8359 3.6484-6.3906 2.8047-9.832 2.1562-0.089844 3.9531-1.875 2.9453-4.0508-0.089844 1.7461-1.3477 3.207-2.9766 3.7617-1.4414-5.6797-5.957-10.168-11.641-11.574 2.8516 1.293 5.5625 2.8125 7.6758 5.1914 2.8359 3.2656 4.75 7.6133 2.9844 11.836-3.6758 9.7344-14.941 18.562-25.621 14.609 5.1406-1.582 10.148-5.3359 12.227-10.414-4.5938 7.2539-14.414 13.637-22.918 9.2109 6.3945-1.2734 11.898-5.7852 14.973-11.453-4.0859 5.4961-9.6367 10.406-16.711 11.145-2.6836 0.28125-5.2031-0.074219-7.3477-1.8086 6.332-1.1016 11.285-5.375 14.645-10.688-4.6016 5.6406-11.191 11.434-19.027 10.102-1.6133-0.28906-3.5273-0.96484-4.5039-2.3672 5.7852-0.19141 10.734-4.0938 14.047-8.5859l-0.027344-0.058593c-3.9688 4.2109-9.3555 8.7852-15.543 7.9375-0.42578-2.4336 1.4141-4.6133 2.7812-6.4531 0.89453-1.2266 1.8125-2.4414 2.7461-3.6406 6.2539-8.5742 15.027-14.871 25.336-17.566 2.8906-0.67969 5.7578-1.4375 8.668-2.0352 4.1406-0.76562 8.3398-1.25 11.723-4 0.13281 0.625-1.2227 2.0898-1.1641 2.6055 0.53516 0.0625 1.9727-0.35547 2.5508-0.51953-0.23047 1.4883 0.71875 2.8906 2.1445 3.3203 0.28906 1.4844 1.4219 2.8516 2.9922 2.9922 0.66797 1.1172 1.8125 2.3125 3.2383 2.0234 0.8125 1.0117 2.1758 1.5977 3.418 1.0469 2.0391 0.96484 2.0938 0.38672 1.8086-1.5859 0.41406 0.0625 0.77734 0.054687 1.1914 0.003906zm1.1875-12.562c-2.5156 0.20703-5.0039-1.2812-6.2148-3.4609-1.0273-1.6875-1.0938-4.2109 0.96094-5.1289 2.2227-1.2031 1.6914 0.066406 3.4609 0.57422 1.5312 0.44141 2.7305-0.49609 4.0039-1.1953-0.027344-1.8398-1.4531-3.8359-3.4648-3.543-1.5508 0.17188-2.5586 1.75-2.2695 3.2422-1.9375-0.19531-3.9766 1.3594-3.9766 3.375-0.070313 3.7344 3.4414 6.7227 7.043 6.7461-2.3242 3.0469-1.9688 6.2188-1.2227 9.7266 0.10156 0.47266 0.42578 1.2383 0.32812 1.6875-0.050781 0.058593-0.0625 0.10156-0.14453 0.12109-1.4766 0.074219-1.5391-2.1797-1.7617-3.207-0.17969 0.44531 0.003906 1.7539 0.097656 2.2422 0.29688 0.92188 0.40625 1.9062 0.375 2.875-2.5078-0.43359-2.8828-3.582-2.625-5.6641-0.87891 1.7891-0.65625 3.9453 0.71875 5.4102-2.9844 0.26563-3.9258-3.4648-3.3945-5.8047-0.84375 1.4258-0.9375 3.3203 0.070312 4.6875-2.9961-0.60156-2.9727-4.2383-2.1836-6.5547-1.0273 1.2539-1.2617 2.8711-0.85156 4.4102-3.0234-0.84766-2.5391-4.6992-1.0938-6.7578-1.1445 0.99219-1.7148 2.2266-1.8086 3.7266-2.7344-1.2148-1.2383-4.7969 0.48828-6.25-1.2305 0.52734-1.9844 1.5977-2.4102 2.8398-0.60938 0.29297-1.2305 0.45703-1.8945 0.58594 0.45312-0.91016 0.875-1.6328 1.0156-2.6641 2.1289-2.332 2.582-4.8477 3.7227-7.6406 0.85937-2.1016 2.0586-4.1484 3.5586-5.8594 4.4453-5.3828 13.125-5.0781 16.207 1.5273-0.98437 0.91797-2.1875 1.9141-2.6289 3.2266-0.42188 1.2578 0.44531 1.9492 0.96875 2.9883-1.5234 1.4414-3.3203 2.5898-5.0703 3.7383zm-2.543-11.383c0.40234-0.49219 0.91016-0.75391 1.5312-0.82812 1.5664-0.10156 2.4922 1.4062 2.8047 2.75-0.71875 0.28125-1.375 0.75-2.1211 0.94922-1.9609 0.32813-3.6797-0.94922-2.2188-2.875zm11.641 6.6367c-1.1914 0.078124-2.3398 0.41797-3.4688 0.78125-0.26172-0.56641-0.60156-1.0859-0.93359-1.6133 0.51562-0.12891 1.0586-0.14844 1.5859-0.1875 1.7656-0.089844 3.4219 0.22266 4.9062 1.2305-0.69141-0.16406-1.375-0.27344-2.0898-0.21094zm1.2852-0.85156c-1.8594-0.93359-3.8438-0.875-5.8398-0.49219 0.30469-1.4219 1.4609-2.3594 2.4414-3.3438 2.1836 0.85547 4.3125 2.5898 4.8711 4.9609-0.42188-0.50781-0.89844-0.8125-1.4766-1.1289z"/>
 <path d="m80.418 12.176c0.21094 0.98828 1.2891 1.582 2.2539 1.3633 2.3359-0.74219 1.5391-3.4961-0.76562-3.2578-0.92969 0.09375-1.7188 0.93359-1.4844 1.8945zm1.3086-0.72656c0.027344-0.27734 0.14844-0.41797 0.36328-0.58203 0.68359-0.0625 1.0273 0.92187 0.32031 1.1641-0.35547 0.039062-0.72656-0.19141-0.68359-0.58203z"/>
 <path d="m80.402 45.32c-0.18359 1.0156-0.51953 2.1367-1.2695 2.8906-0.17187 0.17187-0.58594 0.42969-0.66406 0.64453 0.082031 0.015625 0.13672 0.011719 0.21875-0.003907 1.7578-0.39453 2.5039-1.9102 1.7148-3.5352z"/>
 <path d="m75.738 49.484c0.42578-0.78125 0.29297-1.7578-0.13281-2.5078-0.058594 1.0469-0.30859 1.9414-0.92969 2.8008-0.097656 0.13672-0.83984 0.80078-0.83594 0.88672 0 0.019532 0.023437 0.03125 0.039062 0.046876 0.082032-0.011719 0.16406-0.023438 0.24219-0.046876 0.66797-0.21094 1.2695-0.54297 1.6211-1.1797z"/>
 <path d="m77.688 51.48c-0.19141 1.5742-1.0039 2.668-2.3477 3.4727l0.027344 0.03125 0.10937-0.003906c1.3906-0.074219 2.7578-1.1719 2.457-2.6758-0.03125-0.22266-0.058594-0.67578-0.24219-0.82422z"/>
 <path d="m78.898 42.387c0.39062-0.80469 0.16406-1.7578-0.26563-2.5 0.046876 1.5859-0.61328 2.9922-1.9219 3.9062 0.16016-0.035157 0.32812-0.0625 0.48437-0.10938 0.73438-0.24609 1.3516-0.5625 1.707-1.2969z"/>
 <path d="m68.176 62.496c-0.26562 1.2773-0.70703 2.1758-1.7812 2.9648-0.17969 0.13281-0.49219 0.30469-0.60156 0.49219 0.10938 0.027344 0.058593 0.023437 0.14453 0.015625 1.8633-0.21875 3.0586-1.6406 2.2344-3.4727z"/>
 <path d="m72.422 55.793c0.55859-0.76562 0.55469-1.8828 0.10156-2.6953-0.0625 1.0664-0.5 2.2461-1.3281 2.9609-0.24609 0.21094-0.60937 0.375-0.79297 0.64453 0.082031 0.066406 0.13281 0.042969 0.23828 0.042969 0.71484-0.10547 1.3398-0.34766 1.7812-0.95312z"/>
 <path d="m73.848 57.184c-0.14453 1.2734-0.58594 2.3086-1.6055 3.1289-0.19922 0.16016-0.55078 0.32031-0.67578 0.53906 0.09375 0.035157 0.16016 0.019532 0.25781 0.007813 1.8711-0.25391 2.918-1.9414 2.0273-3.6758z"/>
 <path d="m62.414 64c-0.28906 1.1367-0.81641 2.1211-1.8242 2.7656-0.22656 0.14453-0.60938 0.32422-0.76562 0.53516 0.054687 0.011719 0.089843 0.019531 0.14453 0.011719 0.80859-0.078125 1.6484-0.23828 2.1992-0.90234 0.52344-0.64453 0.61719-1.6953 0.24609-2.4102z"/>
 <path d="m69.059 57.781c-0.16406 1.2266-0.51562 2.1875-1.5078 2.9844-0.24609 0.19531-0.56641 0.32812-0.76562 0.57422l0.015625 0.058594c0.085938 0.007812 0.16797 0.015624 0.25391 0.015624 1.8164-0.058593 2.918-2.0664 2.0078-3.6289z"/>
 <path d="m80.965 41.664c1.6055-0.70312 1.8789-2.918 0.95312-4.2617 0.019531 1.7852-0.31641 3.0352-1.4648 4.4375 0.17188-0.058594 0.34375-0.11328 0.51172-0.17578z"/>
<text x="0.0" y="117.5" font-size="5.0" font-weight="bold" font-family="Arbeit Regular, Helvetica, Arial-Unicode, Arial, Sans-serif" fill="#000000">Created by Fauzi Arts</text><text x="0.0" y="122.5" font-size="5.0" font-weight="bold" font-family="Arbeit Regular, Helvetica, Arial-Unicode, Arial, Sans-serif" fill="#000000">from Noun Project</text></svg>